<?xml version="1.0" encoding="utf-8"?>
<!-- Generator: Adobe Illustrator 22.1.0, SVG Export Plug-In . SVG Version: 6.00 Build 0)  -->
<svg version="1.1" id="Layer_1" xmlns="http://www.w3.org/2000/svg" xmlns:xlink="http://www.w3.org/1999/xlink" x="0px" y="0px"
	 viewBox="0 0 320 164.7" style="enable-background:new 0 0 320 164.7;" xml:space="preserve">
<style type="text/css">
	.st0{fill:#FFFFFF;}
	.st1{fill:url(#SVGID_1_);}
	.st2{fill:url(#SVGID_2_);}
	.st3{fill:url(#SVGID_3_);}
	.st4{fill:url(#SVGID_4_);}
	.st5{fill:url(#SVGID_5_);}
	.st6{fill:url(#SVGID_6_);}
	.st7{fill:url(#SVGID_7_);}
	.st8{fill:url(#SVGID_8_);}
	.st9{fill:url(#SVGID_9_);}
	.st10{fill:url(#SVGID_10_);}
	.st11{fill:url(#SVGID_11_);}
	.st12{fill:url(#SVGID_12_);}
	.st13{fill:url(#SVGID_13_);}
	.st14{fill:url(#SVGID_14_);}
	.st15{fill:url(#SVGID_15_);}
	.st16{fill:url(#SVGID_16_);}
	.st17{fill:url(#SVGID_17_);}
	.st18{fill:url(#SVGID_18_);}
	.st19{fill:url(#SVGID_19_);}
	.st20{fill:url(#SVGID_20_);}
	.st21{fill:url(#SVGID_21_);}
	.st22{fill:url(#SVGID_22_);}
</style>
<path class="st0" d="M256.3,138.2c0-0.6-0.5-1.1-1.1-1.2c-0.7,0-1.2,0.4-1.2,1.1c0,0.6,0.5,1.2,1.1,1.2
	C255.8,139.4,256.3,138.8,256.3,138.2z"/>
<path class="st0" d="M261.7,138.2c0-0.6-0.5-1.1-1.1-1.2c-0.7,0-1.2,0.4-1.2,1.1c0,0.6,0.5,1.2,1.1,1.2
	C261.2,139.4,261.7,138.8,261.7,138.2z"/>
<g>
	
		<linearGradient id="SVGID_1_" gradientUnits="userSpaceOnUse" x1="131.9881" y1="167.9029" x2="186.3647" y2="64.7198" gradientTransform="matrix(1 0 0 -1 0 176.6667)">
		<stop  offset="0" style="stop-color:#833AB4"/>
		<stop  offset="0.4804" style="stop-color:#FD1D1D"/>
		<stop  offset="1" style="stop-color:#FCB045"/>
	</linearGradient>
	<path class="st1" d="M191.3,57.2c-2-9-7.1-15.7-14.8-20.8c2.2-4.5,4.3-9,6.6-13.3c0.6-1.1,2-2.1,3.2-2.4c3.5-0.9,5.9-3.1,6.4-6.3
		c0.4-2.9-1.3-6.1-4-7.4c-3-1.5-6.2-0.8-8.5,1.7s-2.5,5.5-0.7,8.9c0.4,0.7,0.7,1.9,0.4,2.5c-2.2,4.8-4.7,9.6-7.1,14.5
		c-9.2-3.7-17.9-3.6-26.8,0c-2.2-4.5-4.3-8.9-6.6-13.3c-0.8-1.6-1-2.7,0.1-4.3c0.8-1.2,1.1-3.1,0.9-4.5c-0.5-3.7-3.9-6.4-7.4-6.2
		c-3.5,0.2-6.4,3.1-6.8,6.6s2.1,6.8,5.8,7.8c1.1,0.3,2.8,0.5,3.2,1.4c2.5,4.7,4.8,9.5,7.1,14.2c-10.5,9-14.2,15.7-15.9,22l0,0
		c-1.9,6.1-2.7,13.8-2.7,23.3c0,34.9,6.6,46.6,35.3,46.6s35.3-11.6,35.3-46.6C194.3,71.5,193.4,63.5,191.3,57.2z M174.5,46.3
		c0,2.3-2.1,4.5-4.4,4.6c-2.5,0.1-4.8-2.1-4.7-4.6c0-0.8,0.3-1.6,0.7-2.2c3.2,0.4,6,3,8.4,4C174.5,48.2,174.5,46.3,174.5,46.3z
		 M153.3,46.5c-0.1,2.4-2.2,4.4-4.6,4.4c-2.5,0-4.6-2.3-4.5-4.8c0-0.1,0,1.8,0,1.7c2.4-0.9,5.1-3.5,8.3-3.8
		C153.1,44.8,153.3,45.6,153.3,46.5z M159,122.6c-25.7,0-28.8-11.1-28.8-41c0-10,0.8-3.6,2.7-9.3c20.9-13,33.8-12.8,52.4,0.2
		c1.9,5.6,2.6-0.8,2.6,9.1C187.9,111.5,184.7,122.6,159,122.6z"/>
	<linearGradient id="SVGID_2_" gradientUnits="userSpaceOnUse" x1="55.5057" y1="69.7241" x2="249.0057" y2="126.7241">
		<stop  offset="0" style="stop-color:#833AB4"/>
		<stop  offset="0.4804" style="stop-color:#FD1D1D"/>
		<stop  offset="1" style="stop-color:#FCB045"/>
	</linearGradient>
	<path class="st2" d="M92.1,106.1H40.8v-4.4l30.3-72.2h5.8L47.1,101h45V68.6h5.3V101h14.5v5H97.4v21h-5.3V106.1z"/>
	<linearGradient id="SVGID_3_" gradientUnits="userSpaceOnUse" x1="68.7335" y1="24.8194" x2="262.2335" y2="81.8194">
		<stop  offset="0" style="stop-color:#833AB4"/>
		<stop  offset="0.4804" style="stop-color:#FD1D1D"/>
		<stop  offset="1" style="stop-color:#FCB045"/>
	</linearGradient>
	<path class="st3" d="M257.7,106.1h-51.3v-4.4l30.3-72.2h5.8L212.8,101h45V68.6h5.3V101h14.5v5h-14.5v21h-5.3V106.1z"/>
</g>
<linearGradient id="SVGID_4_" gradientUnits="userSpaceOnUse" x1="128.0036" y1="149.7745" x2="219.0036" y2="181.7745">
	<stop  offset="0" style="stop-color:#833AB4"/>
	<stop  offset="0.4804" style="stop-color:#FD1D1D"/>
	<stop  offset="1" style="stop-color:#FCB045"/>
</linearGradient>
<path class="st4" d="M127.3,142.7h0.7v0.9c0,0,1.8-1.1,3.7-1.1c2.6,0,3.7,1.7,3.7,5.4c0,4-1.2,5.7-4.5,5.7c-1.2,0-2.3-0.2-2.8-0.3v5
	h-0.7V142.7z M128,144.4v8.3c0.5,0.1,1.7,0.3,2.8,0.3c2.8,0,3.7-1.4,3.7-5c0-3.4-1-4.7-2.9-4.7C129.9,143.2,128,144.4,128,144.4z"/>
<linearGradient id="SVGID_5_" gradientUnits="userSpaceOnUse" x1="130.0175" y1="144.0473" x2="221.0175" y2="176.0473">
	<stop  offset="0" style="stop-color:#833AB4"/>
	<stop  offset="0.4804" style="stop-color:#FD1D1D"/>
	<stop  offset="1" style="stop-color:#FCB045"/>
</linearGradient>
<path class="st5" d="M145.4,152c0.1,0.6,0.9,0.8,1.6,0.9l0,0.7c-0.9,0-1.7-0.2-2.2-0.9c0,0-2.2,0.9-4.3,0.9c-1.8,0-2.8-1-2.8-3.1
	c0-1.8,0.9-2.9,3-3.1l4.1-0.4v-1.1c0-1.9-0.8-2.6-2.4-2.6c-1.6,0-4,0.4-4,0.4l-0.1-0.7c0,0,2.4-0.4,4.1-0.4c2.2,0,3.1,1.1,3.1,3.3
	V152z M140.7,148.1c-1.7,0.2-2.2,0.9-2.2,2.4c0,1.6,0.7,2.4,2,2.4c2,0,4.2-0.9,4.2-0.9v-4.4L140.7,148.1z"/>
<linearGradient id="SVGID_6_" gradientUnits="userSpaceOnUse" x1="130.6224" y1="142.3271" x2="221.6224" y2="174.3271">
	<stop  offset="0" style="stop-color:#833AB4"/>
	<stop  offset="0.4804" style="stop-color:#FD1D1D"/>
	<stop  offset="1" style="stop-color:#FCB045"/>
</linearGradient>
<path class="st6" d="M148.5,155.1c0-1.4,0.7-1.9,1.8-2.7c-0.3-0.2-0.5-0.7-0.5-1.4c0-0.3,0.6-1.7,0.6-1.7c-1-0.3-1.8-1.2-1.8-3.3
	c0-2.5,1.4-3.6,3.7-3.6c1.2,0,2.3,0.3,2.3,0.3l3-0.1v0.7h-2.3c0.5,0.5,0.9,1.1,0.9,2.6c0,2.6-1.3,3.5-3.9,3.5c-0.2,0-0.9,0-1.2-0.1
	c0,0-0.5,1.2-0.5,1.5c0,1,0.1,1.2,2.9,1.2c2.7,0,3.8,0.4,3.8,3.1c0,2.3-1.4,3.3-4.6,3.3C149.2,158.5,148.5,157.7,148.5,155.1z
	 M150.9,152.8c-1.2,0.9-1.6,1.3-1.6,2.3c0,2,0.5,2.7,3.5,2.7c2.7,0,3.7-0.8,3.7-2.6c0-2.2-0.9-2.4-3-2.4
	C152.6,152.9,150.9,152.8,150.9,152.8z M155.3,146.1c0-2.1-0.8-2.9-3-2.9c-2,0-2.9,0.8-2.9,2.9s0.9,2.8,2.9,2.8
	C154.5,148.9,155.3,148.2,155.3,146.1z"/>
<linearGradient id="SVGID_7_" gradientUnits="userSpaceOnUse" x1="132.4278" y1="137.1931" x2="223.4278" y2="169.1931">
	<stop  offset="0" style="stop-color:#833AB4"/>
	<stop  offset="0.4804" style="stop-color:#FD1D1D"/>
	<stop  offset="1" style="stop-color:#FCB045"/>
</linearGradient>
<path class="st7" d="M167.2,152.7l0,0.7c0,0-2.4,0.2-4,0.2c-3.2,0-4-2.1-4-5.5c0-4.2,1.9-5.5,4.3-5.5c2.6,0,4.1,1.4,4.1,5.1v0.7H160
	c0,3,0.8,4.6,3.3,4.6C164.8,152.9,167.2,152.7,167.2,152.7z M166.8,147.7c0-3.3-1-4.5-3.3-4.5c-2.1,0-3.5,1.2-3.5,4.5H166.8z"/>
<linearGradient id="SVGID_8_" gradientUnits="userSpaceOnUse" x1="134.0541" y1="132.5682" x2="225.0541" y2="164.5682">
	<stop  offset="0" style="stop-color:#833AB4"/>
	<stop  offset="0.4804" style="stop-color:#FD1D1D"/>
	<stop  offset="1" style="stop-color:#FCB045"/>
</linearGradient>
<path class="st8" d="M175.1,153.4v-10.7h0.7v0.9c0,0,1.9-1,3.7-1c2.9,0,3.5,1.2,3.5,5.3v5.6h-0.7v-5.5c0-3.6-0.4-4.7-2.8-4.7
	c-1.9,0-3.7,1.1-3.7,1.1v9.1H175.1z"/>
<linearGradient id="SVGID_9_" gradientUnits="userSpaceOnUse" x1="135.386" y1="128.7807" x2="226.386" y2="160.7807">
	<stop  offset="0" style="stop-color:#833AB4"/>
	<stop  offset="0.4804" style="stop-color:#FD1D1D"/>
	<stop  offset="1" style="stop-color:#FCB045"/>
</linearGradient>
<path class="st9" d="M194.7,147.9c0,4.3-0.8,5.7-4.3,5.7c-3.5,0-4.3-1.4-4.3-5.7c0-4,1.2-5.4,4.3-5.4S194.7,143.9,194.7,147.9z
	 M193.9,147.9c0-3.6-0.8-4.7-3.6-4.7s-3.6,1.1-3.6,4.7c0,3.7,0.4,5.1,3.6,5.1S193.9,151.6,193.9,147.9z"/>
<linearGradient id="SVGID_10_" gradientUnits="userSpaceOnUse" x1="136.9123" y1="124.4403" x2="227.9123" y2="156.4403">
	<stop  offset="0" style="stop-color:#833AB4"/>
	<stop  offset="0.4804" style="stop-color:#FD1D1D"/>
	<stop  offset="1" style="stop-color:#FCB045"/>
</linearGradient>
<path class="st10" d="M198.9,143.4v5.6c0,3.2,0.2,3.9,2,3.9c0.6,0,2.1-0.2,2.1-0.2l0.1,0.7c0,0-1.4,0.2-2.2,0.2
	c-1.9,0-2.7-0.7-2.7-3.8v-6.4h-1.7v-0.7h1.7v-3.5h0.7v3.5h3.9v0.7H198.9z"/>
<linearGradient id="SVGID_11_" gradientUnits="userSpaceOnUse" x1="138.6009" y1="119.6384" x2="229.6009" y2="151.6384">
	<stop  offset="0" style="stop-color:#833AB4"/>
	<stop  offset="0.4804" style="stop-color:#FD1D1D"/>
	<stop  offset="1" style="stop-color:#FCB045"/>
</linearGradient>
<path class="st11" d="M210.7,153.4H210v-10h-1.5v-0.7h1.5v-1.3c0-3.1,0.8-3.8,2.7-3.8c0.8,0,2,0.1,2,0.1v0.7c0,0-1.4,0-2,0
	c-1.5,0-2,0.6-2,3.1v1.3h3.5v0.7h-3.5V153.4z"/>
<linearGradient id="SVGID_12_" gradientUnits="userSpaceOnUse" x1="138.6436" y1="119.517" x2="229.6436" y2="151.517">
	<stop  offset="0" style="stop-color:#833AB4"/>
	<stop  offset="0.4804" style="stop-color:#FD1D1D"/>
	<stop  offset="1" style="stop-color:#FCB045"/>
</linearGradient>
<path class="st12" d="M224.3,147.9c0,4.3-0.8,5.7-4.3,5.7c-3.5,0-4.3-1.4-4.3-5.7c0-4,1.2-5.4,4.3-5.4
	C223.1,142.5,224.3,143.9,224.3,147.9z M223.5,147.9c0-3.6-0.8-4.7-3.6-4.7s-3.6,1.1-3.6,4.7c0,3.7,0.4,5.1,3.6,5.1
	C223.1,152.9,223.5,151.6,223.5,147.9z"/>
<linearGradient id="SVGID_13_" gradientUnits="userSpaceOnUse" x1="139.9756" y1="115.7289" x2="230.9756" y2="147.7289">
	<stop  offset="0" style="stop-color:#833AB4"/>
	<stop  offset="0.4804" style="stop-color:#FD1D1D"/>
	<stop  offset="1" style="stop-color:#FCB045"/>
</linearGradient>
<path class="st13" d="M234.9,142.7v10.7h-0.7v-0.9c0,0-1.7,1-3.5,1c-2.9,0-3.5-1.2-3.5-5.3v-5.6h0.7v5.5c0,3.6,0.4,4.7,2.8,4.7
	c1.9,0,3.5-1.1,3.5-1.1v-9.1H234.9z"/>
<linearGradient id="SVGID_14_" gradientUnits="userSpaceOnUse" x1="141.0076" y1="112.7943" x2="232.0076" y2="144.7943">
	<stop  offset="0" style="stop-color:#833AB4"/>
	<stop  offset="0.4804" style="stop-color:#FD1D1D"/>
	<stop  offset="1" style="stop-color:#FCB045"/>
</linearGradient>
<path class="st14" d="M238.3,153.4v-10.7h0.7v0.9c0,0,1.9-1,3.7-1c2.9,0,3.5,1.2,3.5,5.3v5.6h-0.8v-5.5c0-3.6-0.4-4.7-2.8-4.7
	c-1.9,0-3.7,1.1-3.7,1.1v9.1H238.3z"/>
<linearGradient id="SVGID_15_" gradientUnits="userSpaceOnUse" x1="143.201" y1="106.5567" x2="234.201" y2="138.5567">
	<stop  offset="0" style="stop-color:#833AB4"/>
	<stop  offset="0.4804" style="stop-color:#FD1D1D"/>
	<stop  offset="1" style="stop-color:#FCB045"/>
</linearGradient>
<path class="st15" d="M257.2,153.4h-0.7v-0.9c0,0-1.8,1.1-3.7,1.1c-1.3,0-3.6-0.2-3.6-5.4c0-3.7,1-5.7,4.5-5.7c1,0,2.3,0.2,2.8,0.3
	v-5h0.7V153.4z M256.5,151.8v-8.3c-0.6-0.1-2-0.3-2.8-0.3c-3,0-3.7,1.8-3.7,5c0,4.3,1.6,4.7,2.8,4.7
	C254.6,152.9,256.5,151.8,256.5,151.8z"/>
<linearGradient id="SVGID_16_" gradientUnits="userSpaceOnUse" x1="19.7585" y1="133.4057" x2="110.7585" y2="165.4057">
	<stop  offset="0" style="stop-color:#833AB4"/>
	<stop  offset="0.4804" style="stop-color:#FD1D1D"/>
	<stop  offset="1" style="stop-color:#FCB045"/>
</linearGradient>
<path class="st16" d="M66,143.9c0,0-2.2-0.3-3.6-0.3c-1.4,0-2.9,0.4-2.9,2.1c0,1.3,0.6,1.7,3,2.1c2.8,0.4,3.9,0.9,3.9,2.9
	c0,2.5-1.5,3.3-4.1,3.3c-1.2,0-3.5-0.3-3.5-0.3l0.1-0.7c0,0,2.3,0.4,3.4,0.4c2,0,3.3-0.5,3.3-2.5c0-1.5-0.8-1.8-3.3-2.2
	c-2.5-0.4-3.6-0.8-3.6-2.8c0-2.3,1.9-2.9,3.7-2.9c1.6,0,3.7,0.3,3.7,0.3L66,143.9z"/>
<linearGradient id="SVGID_17_" gradientUnits="userSpaceOnUse" x1="20.923" y1="130.0941" x2="111.923" y2="162.0941">
	<stop  offset="0" style="stop-color:#833AB4"/>
	<stop  offset="0.4804" style="stop-color:#FD1D1D"/>
	<stop  offset="1" style="stop-color:#FCB045"/>
</linearGradient>
<path class="st17" d="M77.5,148.2c0,4.3-0.8,5.7-4.3,5.7s-4.3-1.4-4.3-5.7c0-4,1.2-5.4,4.3-5.4S77.5,144.3,77.5,148.2z M76.7,148.2
	c0-3.6-0.8-4.7-3.6-4.7s-3.6,1.1-3.6,4.7c0,3.7,0.4,5.1,3.6,5.1S76.7,151.9,76.7,148.2z"/>
<linearGradient id="SVGID_18_" gradientUnits="userSpaceOnUse" x1="22.0429" y1="126.9092" x2="113.0429" y2="158.9092">
	<stop  offset="0" style="stop-color:#833AB4"/>
	<stop  offset="0.4804" style="stop-color:#FD1D1D"/>
	<stop  offset="1" style="stop-color:#FCB045"/>
</linearGradient>
<path class="st18" d="M80.5,143.1h0.7v1.7c0,0,1.9-1.4,4.2-1.9v0.8c-2.1,0.4-4.2,1.8-4.2,1.8v8.3h-0.7V143.1z"/>
<linearGradient id="SVGID_19_" gradientUnits="userSpaceOnUse" x1="22.8155" y1="124.7121" x2="113.8155" y2="156.7121">
	<stop  offset="0" style="stop-color:#833AB4"/>
	<stop  offset="0.4804" style="stop-color:#FD1D1D"/>
	<stop  offset="1" style="stop-color:#FCB045"/>
</linearGradient>
<path class="st19" d="M87.5,143.1h0.7v1.7c0,0,1.9-1.4,4.2-1.9v0.8c-2.1,0.4-4.2,1.8-4.2,1.8v8.3h-0.7V143.1z"/>
<linearGradient id="SVGID_20_" gradientUnits="userSpaceOnUse" x1="23.0492" y1="124.0476" x2="114.0492" y2="156.0476">
	<stop  offset="0" style="stop-color:#833AB4"/>
	<stop  offset="0.4804" style="stop-color:#FD1D1D"/>
	<stop  offset="1" style="stop-color:#FCB045"/>
</linearGradient>
<path class="st20" d="M94.3,143.1l3.1,10h0.9l3.2-10h0.8l-4.9,15.6h-0.8l1.5-4.9h-1.3l-3.3-10.7H94.3z"/>
<linearGradient id="SVGID_21_" gradientUnits="userSpaceOnUse" x1="24.691" y1="119.3031" x2="115.691" y2="151.3031">
	<stop  offset="0" style="stop-color:#833AB4"/>
	<stop  offset="0.4804" style="stop-color:#FD1D1D"/>
	<stop  offset="1" style="stop-color:#FCB045"/>
</linearGradient>
<path class="st21" d="M109.2,144.6h0.9v1.7h-0.9V144.6z M109.2,152h0.9v1.7h-0.9V152z"/>
<linearGradient id="SVGID_22_" gradientUnits="userSpaceOnUse" x1="25.9991" y1="117.7346" x2="116.9991" y2="149.7346">
	<stop  offset="0" style="stop-color:#833AB4"/>
	<stop  offset="0.4804" style="stop-color:#FD1D1D"/>
	<stop  offset="1" style="stop-color:#FCB045"/>
</linearGradient>
<path class="st22" d="M115.8,139.8c0,0-2,5.6-2,9.6c0,4,2,9.1,2,9.1H115c0,0-2.1-4.8-2.1-9.1c0-4.3,2.1-9.6,2.1-9.6H115.8z"/>
</svg>
