<?xml version="1.0" encoding="utf-8"?>
<!-- Generator: Adobe Illustrator 22.1.0, SVG Export Plug-In . SVG Version: 6.00 Build 0)  -->
<svg version="1.1" id="Layer_1" xmlns="http://www.w3.org/2000/svg" xmlns:xlink="http://www.w3.org/1999/xlink" x="0px" y="0px"
	 viewBox="0 0 536 402" style="enable-background:new 0 0 536 402;" xml:space="preserve">
<style type="text/css">
	.st0{fill:#FFFFFF;}
</style>
<path class="st0" d="M468,2H68C31.2,2,1.3,31.8,1.3,68.7v266.6C1.3,372.1,31.1,402,68,402h400c36.8,0,66.7-29.8,66.7-66.7V68.7
	C534.6,31.9,504.8,2,468,2z M468,35.4c5.8,0,11.2,1.5,15.9,4.1L268,232.1L52.1,39.4c4.7-2.6,10.1-4,15.9-4H468L468,35.4z
	 M501.3,335.3c0,18.4-15,33.3-33.3,33.3H68c-18.4,0-33.3-14.9-33.3-33.3V68.7c0-0.1,0-0.2,0-0.3L268,276.7L501.2,68.5
	c0,0.1,0,0.2,0,0.2L501.3,335.3L501.3,335.3z"/>
</svg>
