<svg xmlns="http://www.w3.org/2000/svg" xmlns:xlink="http://www.w3.org/1999/xlink" version="1.1" x="0px" y="0px" viewBox="0 0 100 125" enable-background="new 0 0 100 100" xml:space="preserve"><g><path fill="#833ab4" d="M45.507,18.492c-1.479,0-2.791,1.116-3.042,2.595L41.6,26.222c-0.837,0.307-1.647,0.67-2.456,1.033   l-4.298-3.042c-1.2-0.865-2.874-0.698-3.935,0.335L28.54,26.92l-1.619,1.591v0.028l-2.316,2.344l-0.028,0.028   c-1.033,1.033-1.256,2.735-0.363,3.963l3.014,4.27c-0.391,0.782-0.698,1.591-1.005,2.428l-5.135,0.893   c-1.479,0.251-2.595,1.535-2.595,3.042v3.377v2.289v3.321c0,1.479,1.088,2.818,2.595,3.069l5.135,0.865   c0.307,0.837,0.614,1.646,1.005,2.456l-2.986,4.242c-0.865,1.228-0.753,2.93,0.307,3.963l2.4,2.399l1.619,1.591l2.344,2.345   c1.032,1.061,2.763,1.283,3.991,0.391l4.27-3.042c0.781,0.362,1.591,0.726,2.428,1.005l0.865,5.163   c0.251,1.479,1.563,2.567,3.042,2.567h3.349h2.288h3.321c1.507,0,2.847-1.061,3.098-2.567l0.865-5.163   c0.81-0.279,1.618-0.643,2.428-1.005l4.27,3.042c1.256,0.893,2.959,0.67,3.991-0.391l2.372-2.316c0,0,0,0,0-0.028l1.618-1.591   l2.372-2.399c1.033-1.033,1.2-2.735,0.335-3.936l-3.042-4.27c0.363-0.81,0.698-1.619,1.005-2.456l5.163-0.865   c1.507-0.251,2.567-1.591,2.567-3.069v-3.321v-2.289v-3.377c0-1.507-1.089-2.791-2.567-3.042l-5.19-0.893   c-0.308-0.81-0.614-1.619-0.978-2.428l3.042-4.27c0.865-1.228,0.698-2.93-0.335-3.991l-2.372-2.372l-1.618-1.591l-2.4-2.372   c-1.032-1.033-2.734-1.2-3.963-0.335l-4.241,3.014c-0.81-0.363-1.619-0.698-2.456-1.005l-0.865-5.135   c-0.251-1.507-1.591-2.595-3.098-2.595h-3.321h-2.288H45.507L45.507,18.492z M45.507,20.083h3.349h2.288h3.321   c0.698,0,1.424,0.586,1.535,1.256l0.948,5.609c0.028,0.279,0.252,0.53,0.53,0.614c1.089,0.363,2.121,0.781,3.126,1.284   c0.251,0.112,0.586,0.112,0.81-0.056l4.66-3.293c0.559-0.391,1.423-0.334,1.926,0.167c0,0,0,0,0,0.028l2.372,2.344l1.591,1.619   L74.335,32c0.475,0.502,0.586,1.423,0.195,1.953l-3.293,4.661c-0.168,0.223-0.195,0.558-0.084,0.81   c0.502,1.004,0.949,2.037,1.312,3.125c0.084,0.279,0.335,0.502,0.614,0.53l5.609,0.949c0.669,0.112,1.228,0.782,1.228,1.479v3.377   v2.289v3.321c0,0.67-0.559,1.396-1.228,1.507l-5.609,0.948c-0.279,0.057-0.53,0.252-0.614,0.53   c-0.362,1.089-0.81,2.121-1.312,3.126c-0.111,0.251-0.084,0.586,0.084,0.81l3.293,4.633c0.391,0.558,0.307,1.451-0.195,1.953   l-2.372,2.372l-1.591,1.619L68,74.308c-0.475,0.502-1.396,0.613-1.926,0.223l-4.66-3.293c-0.224-0.167-0.559-0.195-0.81-0.056   c-1.005,0.502-2.037,0.921-3.126,1.284c-0.278,0.083-0.502,0.334-0.53,0.613L56,78.688c-0.111,0.643-0.837,1.256-1.535,1.256   h-3.321h-2.288h-3.349c-0.67,0-1.368-0.586-1.479-1.256l-0.949-5.609c-0.056-0.279-0.279-0.53-0.53-0.613   c-1.088-0.363-2.121-0.782-3.125-1.284c-0.279-0.14-0.586-0.111-0.81,0.056l-4.604,3.293c-0.53,0.391-1.507,0.279-2.009-0.223   l-2.344-2.316l-1.591-1.619L25.693,68c-0.502-0.502-0.586-1.396-0.195-1.953l3.293-4.633c0.167-0.224,0.195-0.559,0.056-0.81   c-0.502-1.005-0.949-2.037-1.312-3.126c-0.083-0.278-0.335-0.474-0.614-0.53L21.312,56c-0.642-0.111-1.256-0.837-1.256-1.507   v-3.321v-2.289v-3.377c0-0.697,0.614-1.367,1.256-1.479l5.609-0.977c0.279-0.028,0.502-0.251,0.614-0.502   c0.363-1.088,0.81-2.121,1.312-3.125c0.14-0.251,0.112-0.586-0.056-0.81l-3.321-4.661c-0.363-0.53-0.251-1.451,0.223-1.953   l2.344-2.344l1.619-1.619l2.372-2.344c0-0.028,0-0.028,0-0.028c0.502-0.502,1.367-0.558,1.925-0.167l4.661,3.293   c0.223,0.167,0.558,0.167,0.81,0.056c1.004-0.502,2.037-0.921,3.125-1.284c0.251-0.084,0.474-0.335,0.53-0.614l0.949-5.609   C44.139,20.669,44.837,20.083,45.507,20.083L45.507,20.083z M50,36.911c-7.228,0-13.088,5.888-13.088,13.117   c0,7.228,5.86,13.088,13.088,13.088c7.228,0,13.116-5.86,13.116-13.088C63.116,42.799,57.228,36.911,50,36.911L50,36.911z    M50,38.474c6.362,0,11.554,5.163,11.554,11.554S56.362,61.554,50,61.554c-6.391,0-11.526-5.135-11.526-11.526   S43.609,38.474,50,38.474L50,38.474z"/></g></svg>