<svg xmlns="http://www.w3.org/2000/svg" xmlns:xlink="http://www.w3.org/1999/xlink" version="1.1" x="0px" y="0px" viewBox="0 0 100 125" style="enable-background:new 0 0 100 100;" xml:space="preserve"><g><path d="M22.4,78.6c0.3,0,0.5-0.1,0.7-0.3l55.2-55.2c0.4-0.4,0.4-1,0-1.4s-1-0.4-1.4,0L21.7,76.9c-0.4,0.4-0.4,1,0,1.4   C21.9,78.5,22.2,78.6,22.4,78.6z"/><path d="M49,37c1.6,0,3.2,0.3,4.7,0.9c0.5,0.2,1.1-0.1,1.3-0.6c0.2-0.5-0.1-1.1-0.6-1.3c-1.8-0.7-3.6-1-5.4-1c-8.3,0-15,6.7-15,15   c0,1.8,0.3,3.7,1,5.4c0.2,0.4,0.5,0.6,0.9,0.6c0.1,0,0.2,0,0.4-0.1c0.5-0.2,0.8-0.8,0.6-1.3C36.3,53.2,36,51.6,36,50   C36,42.8,41.8,37,49,37z"/><path d="M49,63c-1.1,0-2.2-0.1-3.3-0.4c-0.5-0.1-1.1,0.2-1.2,0.7c-0.1,0.5,0.2,1.1,0.7,1.2c1.3,0.3,2.5,0.5,3.8,0.5   c8.3,0,15-6.7,15-15c0-1.2-0.2-2.5-0.5-3.8c-0.1-0.5-0.7-0.9-1.2-0.7c-0.5,0.1-0.9,0.7-0.7,1.2c0.3,1.1,0.4,2.2,0.4,3.3   C62,57.2,56.2,63,49,63z"/><path d="M9,50.4v0.1c0,0.3,0.1,0.5,0.3,0.7c6,5.8,11.6,10.2,17.3,13.5c0.2,0.1,0.3,0.1,0.5,0.1c0.3,0,0.7-0.2,0.9-0.5   c0.3-0.5,0.1-1.1-0.4-1.4c-5.2-3-10.7-7.3-16.2-12.6c18.3-17.7,32.7-23.1,48-18.2c0.5,0.2,1.1-0.1,1.3-0.6c0.2-0.5-0.1-1.1-0.6-1.3   c-16.1-5.1-31.7,0.8-50.7,19.4C9.1,49.9,9,50.2,9,50.4z"/><path d="M89,50.6v-0.1c0-0.3-0.1-0.5-0.3-0.7c-5.8-5.7-11.1-10-16.3-13.4c-0.5-0.3-1.1-0.2-1.4,0.3c-0.3,0.5-0.2,1.1,0.3,1.4   c4.9,3.1,9.9,7.2,15.4,12.5C70,66.5,55.2,72.1,40,68.3c-0.5-0.1-1.1,0.2-1.2,0.7c-0.1,0.5,0.2,1.1,0.7,1.2c3.2,0.8,6.4,1.2,9.6,1.2   c12.8,0,25.6-6.6,39.6-20.2C88.9,51.1,89,50.8,89,50.6z"/></g></svg>