<?xml version="1.0" encoding="utf-8"?>
<!-- Generator: Adobe Illustrator 22.1.0, SVG Export Plug-In . SVG Version: 6.00 Build 0)  -->
<svg version="1.1" id="Layer_2" xmlns="http://www.w3.org/2000/svg" xmlns:xlink="http://www.w3.org/1999/xlink" x="0px" y="0px"
	 viewBox="0 0 432 102" style="enable-background:new 0 0 432 102;" xml:space="preserve">
<style type="text/css">
	.st0{fill:url(#SVGID_1_);}
	.st1{fill:url(#SVGID_2_);}
	.st2{fill:url(#SVGID_3_);}
	.st3{fill:url(#SVGID_4_);}
	.st4{fill:url(#SVGID_5_);}
	.st5{fill:url(#SVGID_6_);}
	.st6{fill:url(#SVGID_7_);}
	.st7{fill:url(#SVGID_8_);}
	.st8{fill:url(#SVGID_9_);}
	.st9{fill:url(#SVGID_10_);}
	.st10{fill:url(#SVGID_11_);}
	.st11{fill:url(#SVGID_12_);}
	.st12{fill:#FFFFFF;}
</style>
<g>
	<radialGradient id="SVGID_1_" cx="226" cy="55" r="224.6286" gradientUnits="userSpaceOnUse">
		<stop  offset="0" style="stop-color:#FCB045"/>
		<stop  offset="0.5196" style="stop-color:#FD1D1D"/>
		<stop  offset="1" style="stop-color:#833AB4"/>
	</radialGradient>
	<path class="st0" d="M6.1,25.1h3.6v4.3c0,0,8.4-5.2,17.7-5.2c12.5,0,17.5,8.3,17.5,25.7c0,19.1-5.8,27.4-21.7,27.4
		c-5.5,0-11.2-0.9-13.5-1.4v24.1H6.1V25.1z M9.7,32.9v39.7c2.3,0.4,8,1.4,13.5,1.4c13.2,0,17.9-6.7,17.9-24.1
		c0-16.5-4.9-22.4-13.7-22.4S9.7,32.9,9.7,32.9z"/>
	<radialGradient id="SVGID_2_" cx="226" cy="55" r="224.6286" gradientUnits="userSpaceOnUse">
		<stop  offset="0" style="stop-color:#FCB045"/>
		<stop  offset="0.5196" style="stop-color:#FD1D1D"/>
		<stop  offset="1" style="stop-color:#833AB4"/>
	</radialGradient>
	<path class="st1" d="M98.6,49.8c0,20.6-3.9,27.5-20.8,27.5C60.9,77.2,57,70.4,57,49.8c0-19,5.6-25.6,20.8-25.6S98.6,30.8,98.6,49.8
		z M94.9,49.8c0-17.2-3.9-22.3-17-22.3s-17,5.1-17,22.3c0,17.6,1.8,24.2,17,24.2S94.9,67.4,94.9,49.8z"/>
	<radialGradient id="SVGID_3_" cx="226" cy="55" r="224.6286" gradientUnits="userSpaceOnUse">
		<stop  offset="0" style="stop-color:#FCB045"/>
		<stop  offset="0.5196" style="stop-color:#FD1D1D"/>
		<stop  offset="1" style="stop-color:#833AB4"/>
	</radialGradient>
	<path class="st2" d="M113.5,1.5h3.6v74.8h-3.6V1.5z"/>
	<radialGradient id="SVGID_4_" cx="226" cy="55" r="224.6286" gradientUnits="userSpaceOnUse">
		<stop  offset="0" style="stop-color:#FCB045"/>
		<stop  offset="0.5196" style="stop-color:#FD1D1D"/>
		<stop  offset="1" style="stop-color:#833AB4"/>
	</radialGradient>
	<path class="st3" d="M134.5,1.5h3.6v74.8h-3.6V1.5z"/>
	<radialGradient id="SVGID_5_" cx="226" cy="55" r="224.6286" gradientUnits="userSpaceOnUse">
		<stop  offset="0" style="stop-color:#FCB045"/>
		<stop  offset="0.5196" style="stop-color:#FD1D1D"/>
		<stop  offset="1" style="stop-color:#833AB4"/>
	</radialGradient>
	<path class="st4" d="M193.4,49.9c0,19.2-4.3,27.4-23.4,27.4c-7,0-15.3-0.9-15.3-0.9V1.5h3.6v26.8c0,0,8.5-4.1,17.6-4.1
		C190,24.1,193.4,32.2,193.4,49.9z M189.6,49.9c0-15.2-2.3-22.4-13.6-22.4c-9.1,0-17.6,4.1-17.6,4.1v41.8c0,0,8,0.6,11.6,0.6
		C187.1,74,189.6,66.4,189.6,49.9z"/>
	<radialGradient id="SVGID_6_" cx="226" cy="55" r="224.6286" gradientUnits="userSpaceOnUse">
		<stop  offset="0" style="stop-color:#FCB045"/>
		<stop  offset="0.5196" style="stop-color:#FD1D1D"/>
		<stop  offset="1" style="stop-color:#833AB4"/>
	</radialGradient>
	<path class="st5" d="M244.3,25.1v51.2h-3.6v-4.1c0,0-8,5-16.8,5c-13.9,0-16.8-5.6-16.8-25.5V25.1h3.6v26.4
		c0,17.4,1.8,22.4,13.2,22.4c9.1,0,16.8-5.1,16.8-5.1V25.1H244.3z"/>
	<radialGradient id="SVGID_7_" cx="226" cy="55" r="224.6286" gradientUnits="userSpaceOnUse">
		<stop  offset="0" style="stop-color:#FCB045"/>
		<stop  offset="0.5196" style="stop-color:#FD1D1D"/>
		<stop  offset="1" style="stop-color:#833AB4"/>
	</radialGradient>
	<path class="st6" d="M260.5,4.6h3.6v5.6h-3.6V4.6z M260.5,25.1h3.6v51.2h-3.6V25.1z"/>
	<radialGradient id="SVGID_8_" cx="226" cy="55" r="224.6286" gradientUnits="userSpaceOnUse">
		<stop  offset="0" style="stop-color:#FCB045"/>
		<stop  offset="0.5196" style="stop-color:#FD1D1D"/>
		<stop  offset="1" style="stop-color:#833AB4"/>
	</radialGradient>
	<path class="st7" d="M280.9,1.5h3.6v74.8h-3.6V1.5z"/>
	<radialGradient id="SVGID_9_" cx="226" cy="55" r="224.6286" gradientUnits="userSpaceOnUse">
		<stop  offset="0" style="stop-color:#FCB045"/>
		<stop  offset="0.5196" style="stop-color:#FD1D1D"/>
		<stop  offset="1" style="stop-color:#833AB4"/>
	</radialGradient>
	<path class="st8" d="M337.8,76.3h-3.6V72c0,0-8.4,5.2-17.7,5.2c-6.4,0-17.4-0.8-17.4-25.7c0-17.6,4.8-27.4,21.6-27.4
		c4.8,0,11,0.8,13.5,1.2V1.5h3.6V76.3z M334.3,68.6v-40c-2.7-0.4-9.5-1.2-13.5-1.2c-14.6,0-17.8,8.8-17.8,24.1
		c0,20.7,7.9,22.4,13.6,22.4C325.3,74,334.3,68.6,334.3,68.6z"/>
	<radialGradient id="SVGID_10_" cx="226" cy="55" r="224.6286" gradientUnits="userSpaceOnUse">
		<stop  offset="0" style="stop-color:#FCB045"/>
		<stop  offset="0.5196" style="stop-color:#FD1D1D"/>
		<stop  offset="1" style="stop-color:#833AB4"/>
	</radialGradient>
	<path class="st9" d="M389.9,73l0.2,3.3c0,0-11.5,0.9-19,0.9c-15.3-0.1-19.3-9.8-19.3-26.5c0-20.3,9-26.5,20.7-26.5
		c12.6,0,19.5,6.9,19.5,24.6v3.4h-36.4c0,14.1,3.7,21.8,15.6,21.8C378.4,74,389.9,73,389.9,73z M388.3,48.8c0-15.7-5-21.4-15.7-21.4
		c-10.2,0-16.9,5.8-16.9,21.4H388.3z"/>
	<radialGradient id="SVGID_11_" cx="226" cy="55" r="224.6286" gradientUnits="userSpaceOnUse">
		<stop  offset="0" style="stop-color:#FCB045"/>
		<stop  offset="0.5196" style="stop-color:#FD1D1D"/>
		<stop  offset="1" style="stop-color:#833AB4"/>
	</radialGradient>
	<path class="st10" d="M405.5,25.1h3.6v8c0,0,9-6.9,20.3-9v3.7c-10,2.1-20.3,8.7-20.3,8.7v39.9h-3.6V25.1z"/>
</g>
<g>
	
		<radialGradient id="SVGID_12_" cx="226" cy="55" r="224.6286" gradientTransform="matrix(1 0 0 -1 0 104)" gradientUnits="userSpaceOnUse">
		<stop  offset="0" style="stop-color:#FCB045"/>
		<stop  offset="0.5196" style="stop-color:#FD1D1D"/>
		<stop  offset="1" style="stop-color:#833AB4"/>
	</radialGradient>
	<path class="st11" d="M97.1,35.4c-1.2-5.5-4.3-9.5-9-12.6c1.3-2.7,2.6-5.4,4-8c0.4-0.6,1.2-1.2,1.9-1.4c2.1-0.5,3.6-1.9,3.9-3.8
		c0.3-1.8-0.8-3.7-2.4-4.5c-1.8-0.9-3.7-0.5-5.1,1s-1.5,3.3-0.4,5.4c0.2,0.4,0.4,1.1,0.2,1.5c-1.4,2.9-2.8,5.8-4.3,8.8
		c-5.5-2.3-10.8-2.2-16.2,0c-1.4-2.7-2.6-5.4-4-8c-0.5-0.9-0.6-1.6,0-2.6c0.5-0.7,0.6-1.9,0.5-2.7c-0.3-2.3-2.4-3.9-4.5-3.7
		c-2.1,0.1-3.9,1.9-4.1,4s1.3,4.1,3.5,4.7c0.7,0.2,1.7,0.3,1.9,0.8c1.5,2.8,2.9,5.8,4.3,8.6c-6.2,5.5-8.5,9.5-9.5,13.4l0,0
		c-1.1,3.7-1.6,8.4-1.6,14.1c0,21.2,4,28.2,21.4,28.2S99,71.5,99,50.4C99,44.1,98.4,39.2,97.1,35.4z M87,28.8c0,1.4-1.3,2.7-2.7,2.8
		c-1.5,0-2.9-1.3-2.9-2.8c0-0.5,0.2-0.9,0.4-1.3C83.8,27.7,85.5,28.1,87,28.8C86.9,28.8,87,28.8,87,28.8z M74.1,29
		c0,1.4-1.3,2.7-2.8,2.7s-2.8-1.4-2.7-2.9c0-0.1,0-0.1,0-0.2c1.4-0.6,3.1-0.9,5-1.1C74,27.9,74.2,28.4,74.1,29z M77.6,75
		C62,75,60.1,68.3,60.1,50.2c0-6.1,0.5-10.7,1.6-14.1c10.4,0,21.2,0.1,31.7,0.1c1.1,3.4,1.6,8,1.6,14C95.1,68.3,93.2,75,77.6,75z"/>
	<path class="st12" d="M74.2,29.2c0-1.4-1.2-2.7-2.6-2.8c-1.6,0-2.8,1-2.9,2.5s1.2,2.9,2.7,2.9C72.9,31.9,74.1,30.6,74.2,29.2z"/>
	<path class="st12" d="M87,29.2c0-1.4-1.2-2.7-2.6-2.8c-1.6,0-2.8,1-2.9,2.5s1.2,2.9,2.7,2.9C85.7,31.9,87,30.6,87,29.2z"/>
</g>
</svg>
