<?xml version="1.0" encoding="utf-8"?>
<!-- Generator: Adobe Illustrator 22.1.0, SVG Export Plug-In . SVG Version: 6.00 Build 0)  -->
<svg version="1.1" id="Layer_1" xmlns="http://www.w3.org/2000/svg" xmlns:xlink="http://www.w3.org/1999/xlink" x="0px" y="0px"
	 viewBox="0 0 133.3 133.3" style="enable-background:new 0 0 133.3 133.3;" xml:space="preserve">
<style type="text/css">
	.st0{fill:url(#SVGID_1_);}
	.st1{fill:#FFFFFF;}
</style>
<g>
	
		<linearGradient id="SVGID_1_" gradientUnits="userSpaceOnUse" x1="39.0454" y1="127.8903" x2="93.4221" y2="24.7073" gradientTransform="matrix(1 -2.078194e-04 -2.078194e-04 -1 4.184355e-02 135.9761)">
		<stop  offset="0" style="stop-color:#833AB4"/>
		<stop  offset="0.4804" style="stop-color:#FD1D1D"/>
		<stop  offset="1" style="stop-color:#FCB045"/>
	</linearGradient>
	<path class="st0" d="M98.3,56.5c-2-9-7.1-15.7-14.8-20.8c2.2-4.5,4.3-9,6.6-13.3c0.6-1.1,2-2.1,3.2-2.4c3.5-0.9,5.9-3.1,6.4-6.3
		c0.4-2.9-1.3-6.1-4-7.4c-3-1.5-6.2-0.8-8.5,1.7s-2.5,5.5-0.7,8.9c0.4,0.7,0.7,1.9,0.4,2.5c-2.2,4.8-4.7,9.6-7.1,14.5
		c-9.2-3.7-17.9-3.6-26.8,0c-2.2-4.5-4.3-8.9-6.6-13.3c-0.8-1.6-1-2.7,0.1-4.3c0.8-1.2,1.1-3.1,0.9-4.5c-0.5-3.7-3.9-6.4-7.4-6.2
		c-3.5,0.2-6.4,3.1-6.8,6.6C32.8,15.7,35.3,19,39,20c1.1,0.3,2.8,0.5,3.2,1.3c2.5,4.7,4.8,9.5,7.1,14.2c-10.3,9.1-14,15.8-15.7,22.1
		l0,0c-1.8,6.1-2.7,13.8-2.7,23.3c0,34.9,6.6,46.6,35.3,46.6s35.3-11.7,35.3-46.6C101.4,70.9,100.4,62.8,98.3,56.5z M81.6,45.7
		c0,2.3-2.1,4.5-4.4,4.6c-2.5,0.1-4.8-2.1-4.7-4.6c0-0.8,0.3-1.6,0.7-2.2c3.2,0.4,6,1,8.4,2C81.5,45.6,81.6,45.6,81.6,45.7z
		 M60.4,45.9c-0.1,2.4-2.2,4.4-4.6,4.4c-2.5,0-4.6-2.3-4.5-4.8c0-0.1,0-0.2,0-0.3c2.4-0.9,5.1-1.5,8.3-1.8
		C60.1,44.1,60.4,45,60.4,45.9z M66.1,122c-25.7,0-28.9-11.1-28.9-41c0-10,0.8-17.6,2.7-23.3c17.3,0,35,0.2,52.4,0.2
		c1.9,5.6,2.6,13.2,2.6,23.1C95,110.9,91.8,122,66.1,122z"/>
	<path class="st1" d="M60.4,45.9c0.1-2.4-1.9-4.5-4.3-4.5c-2.6-0.1-4.6,1.7-4.7,4.2c-0.1,2.5,2,4.8,4.5,4.8
		C58.2,50.3,60.3,48.3,60.4,45.9z"/>
	<path class="st1" d="M81.5,45.9c0.1-2.4-1.9-4.5-4.3-4.5c-2.6-0.1-4.6,1.7-4.7,4.2s2,4.8,4.5,4.8C79.3,50.3,81.4,48.3,81.5,45.9z"
		/>
</g>
</svg>
