<svg xmlns="http://www.w3.org/2000/svg" xmlns:xlink="http://www.w3.org/1999/xlink" version="1.1" x="0px" y="0px" viewBox="0 0 100 125" style="enable-background:new 0 0 100 100;" xml:space="preserve"><style type="text/css">
	.st0{fill:none;stroke:#010101;stroke-width:4;stroke-miterlimit:10;}
	.st1{fill:none;stroke:#010101;stroke-width:4;stroke-linecap:round;stroke-miterlimit:10;}
	.st2{fill:none;stroke:#010101;stroke-width:4;stroke-linecap:round;stroke-linejoin:round;stroke-miterlimit:10;}
</style><g><path d="M75.6,58.2c-0.4,0.4-0.4,1,0,1.4c0.4,0.4,1,0.4,1.4,0c2.8-2.6,5.4-5.7,7.7-9.1c0.2-0.3,0.2-0.8,0-1.1   C75.9,36.5,63.2,29,50,29s-25.9,7.5-34.6,20.4c-0.2,0.3-0.2,0.8,0,1.1C24.1,63.5,36.8,71,50,71c7.4,0,14.5-2.2,21-6.6   c0.8-0.5,1.5-1,2.3-1.6c0.4-0.3,0.5-1,0.2-1.4c-0.3-0.4-1-0.5-1.4-0.2c-0.7,0.5-1.4,1.1-2.2,1.5C63.7,66.9,57,69,50,69   c-12.4,0-24.2-6.9-32.6-19C25.8,37.9,37.6,31,50,31s24.2,6.9,32.6,19C80.5,53,78.1,55.8,75.6,58.2z"/><path d="M36.5,50c0,7.4,6.1,13.5,13.5,13.5S63.5,57.4,63.5,50S57.4,36.5,50,36.5S36.5,42.6,36.5,50z M61.5,50   c0,6.3-5.2,11.5-11.5,11.5S38.5,56.3,38.5,50S43.7,38.5,50,38.5S61.5,43.7,61.5,50z"/></g></svg>