<?xml version="1.0" encoding="utf-8"?>
<!-- Generator: Adobe Illustrator 22.1.0, SVG Export Plug-In . SVG Version: 6.00 Build 0)  -->
<svg version="1.1" xmlns="http://www.w3.org/2000/svg" xmlns:xlink="http://www.w3.org/1999/xlink" x="0px" y="0px"
	 viewBox="0 0 1920 1080" style="enable-background:new 0 0 1920 1080;" xml:space="preserve">
<style type="text/css">
	.st0{fill:#D1D3D4;stroke:#BCBEC0;stroke-width:0.5;stroke-miterlimit:10;}
	.st1{fill:#FFFFFF;stroke:#BCBEC0;stroke-width:0.5;stroke-miterlimit:10;}
	.st2{fill-rule:evenodd;clip-rule:evenodd;fill:none;stroke:#BCBEC0;stroke-width:0.5;stroke-miterlimit:10;}
	.st3{fill:#E6E7E8;stroke:#BCBEC0;stroke-width:0.5;stroke-miterlimit:10;}
	.st4{fill:none;stroke:#BCBEC0;stroke-width:0.5;stroke-miterlimit:10;}
	.st5{fill:#00BADD;}
	.st6{fill:#00D1DC;}
	.st7{fill:#536EAE;}
	.st8{fill:#0089C7;}
	.st9{fill:#00E6D5;}
	.st10{fill:#00A3D7;}
	.st11{fill:#F1F2F2;stroke:#BCBEC0;stroke-width:0.5;stroke-miterlimit:10;}
	.st12{fill:#2DD999;}
	.st13{fill:#D1F072;}
	.st14{fill:#00CEA6;}
	.st15{fill:#A0EB7E;}
	.st16{fill:#FEF46B;}
	.st17{fill:#6FE38B;}
	.st18{clip-path:url(#SVGID_2_);}
</style>
<g id="Layer_2">
	<path class="st0" d="M1187.3,218c0-22.2-18-40.3-40.1-40.3h-943c-22.2,0-40.1,18-40.1,40.3V849h1023.2L1187.3,218L1187.3,218
		L1187.3,218z"/>
	<polygon class="st1" points="205.4,217.2 205.4,809.6 1146,809.6 1146,217.2 205.4,217.2 	"/>
	<path class="st0" d="M1295,885.7c0,0.6-0.5,1-1,1H52c-0.6,0-1-0.5-1-1v-35.6c0-0.6,0.5-1,1-1H1294c0.6,0,1,0.5,1,1V885.7
		L1295,885.7L1295,885.7z M1295,885.7"/>
	<path class="st0" d="M51.9,886.7c3.6,7.3,14.8,12.6,28,12.6h1186.2c13.2,0,24.4-5.3,28-12.6H51.9L51.9,886.7L51.9,886.7z
		 M51.9,886.7"/>
	<path class="st0" d="M1277,826.4c0,12.5-10.1,22.6-22.6,22.6h-166.7c-12.5,0-22.5-10.1-22.5-22.6V428.3c0-12.5,10.1-22.7,22.5-22.7
		h166.7c12.5,0,22.6,10.1,22.6,22.7V826.4L1277,826.4L1277,826.4z M1277,826.4"/>
	<path class="st0" d="M69,255.8c0-12.4,10-22.5,22.3-22.5h423.9c12.3,0,22.3,10.1,22.3,22.5v570.8c0,12.4-10,22.5-22.3,22.5H91.3
		C78.9,849,69,839,69,826.6V255.8L69,255.8L69,255.8z M69,255.8"/>
	<path class="st1" d="M94.1,276.4v500.8h418.3V276.4H94.1L94.1,276.4z M94.1,276.4"/>
	<path class="st1" d="M1077.8,470.3v314.1h184.9V470.3H1077.8L1077.8,470.3z M1077.8,470.3"/>
	<path class="st2" d="M1294.9,885.6c0,0.6-0.5,1-1,1H52.2c-0.6,0-1-0.5-1-1v-35.3c0-0.6,0.5-1,1-1h1241.7c0.6,0,1,0.5,1,1V885.6
		L1294.9,885.6L1294.9,885.6z M1294.9,885.6"/>
	<path class="st2" d="M593.5,849.2c-0.2,0.9-0.3,1.9-0.3,2.8c0,9.2,7.2,16.6,16.1,16.6h132.8c8.9,0,16.1-7.5,16.1-16.6
		c0-1-0.1-1.9-0.3-2.8H593.5L593.5,849.2L593.5,849.2z M593.5,849.2"/>
	<path class="st3" d="M593.4,849c-0.2,0.9-0.3,1.9-0.3,2.9c0,9.3,7.2,16.9,16.1,16.9h133c8.9,0,16.1-7.6,16.1-16.9
		c0-1-0.1-1.9-0.3-2.9H593.4L593.4,849L593.4,849z M593.4,849"/>
	<path class="st2" d="M303.2,831.9c10.3,0,18.7-8.4,18.7-18.7s-8.4-18.7-18.7-18.7c-10.3,0-18.7,8.4-18.7,18.7
		S292.9,831.9,303.2,831.9L303.2,831.9z M303.2,831.9"/>
	<path class="st3" d="M303.2,832c10.4,0,18.8-8.4,18.8-18.8s-8.4-18.8-18.8-18.8s-18.8,8.4-18.8,18.8S292.8,832,303.2,832L303.2,832
		z M303.2,832"/>
	<path class="st2" d="M309.5,818.4c0,0.6-0.4,1-1,1h-10.6c-0.5,0-1-0.5-1-1v-10.5c0-0.6,0.4-1,1-1h10.6c0.5,0,1,0.5,1,1V818.4
		L309.5,818.4L309.5,818.4z M309.5,818.4"/>
	<path class="st4" d="M309.5,818.4c0,0.6-0.4,1-1,1h-10.6c-0.5,0-1-0.5-1-1v-10.5c0-0.6,0.4-1,1-1h10.6c0.5,0,1,0.5,1,1V818.4
		L309.5,818.4L309.5,818.4z M309.5,818.4"/>
	<path class="st2" d="M1170.2,835.4c10.3,0,18.7-8.4,18.7-18.7s-8.4-18.7-18.7-18.7c-10.3,0-18.7,8.4-18.7,18.7
		S1159.9,835.4,1170.2,835.4L1170.2,835.4z M1170.2,835.4"/>
	<path class="st3" d="M1170.2,835.6c10.4,0,18.8-8.4,18.8-18.8s-8.4-18.8-18.8-18.8c-10.4,0-18.8,8.4-18.8,18.8
		S1159.8,835.6,1170.2,835.6L1170.2,835.6z M1170.2,835.6"/>
	<path class="st2" d="M1176.5,822c0,0.6-0.4,1-1,1h-10.6c-0.5,0-1-0.5-1-1v-10.5c0-0.6,0.4-1,1-1h10.6c0.5,0,1,0.5,1,1V822
		L1176.5,822L1176.5,822z M1176.5,822"/>
	<path class="st4" d="M1176.5,822c0,0.6-0.4,1-1,1h-10.6c-0.5,0-1-0.5-1-1v-10.5c0-0.6,0.4-1,1-1h10.6c0.5,0,1,0.5,1,1V822
		L1176.5,822L1176.5,822z M1176.5,822"/>
</g>
<g id="Layer_1">
	<g>
		<path class="st5" d="M877.7,533.2c-23.9,23.7-52.4,38.9-85.3,45.6c-37.3,7.5-73,2.7-107.2-13.9c-3.5-1.7-7-3.7-10.4-5.6
			c1-1.2,2.1-2.3,2.8-3.6c6.9-11.9,13.7-23.7,20.4-35.6c4.8-8.6,9.4-17.4,14.1-26.1c21.6,12.3,44.5,15.7,68.8,10.2
			c17.1-3.9,31.4-12.9,43.9-24.8c1.3,1.6,2.6,3.2,4,4.7C845.2,500.4,861.4,516.8,877.7,533.2z"/>
		<path class="st6" d="M877.7,533.2c-16.3-16.4-32.5-32.8-48.8-49.2c-1.4-1.5-2.7-3.1-4-4.7c17.1-18,26.3-39.3,26.8-64.2
			c0.3-16.9-4.3-32.6-12.6-47.3c2.1-1.1,4.2-2.2,6.3-3.4c19.7-11.3,39.4-22.6,59.1-33.9c9,14.6,15.1,30.5,18.5,47.3
			C935.1,437.5,919.6,489.2,877.7,533.2z"/>
		<path class="st7" d="M613.9,330.5c6.6-13.3,16.1-24.3,26.4-34.6c26.3-26.5,58.2-42.2,95.1-47.8c7.9-1.2,16.1-0.9,24.1-1.2
			c0,25,0,50,0.1,75.1c-1.4,0.1-2.7,0.3-4.1,0.3c-17.6,0.8-33.7,6-48.3,16c-11.7,8-20.6,18.5-28.1,30.4c-0.5-0.5-0.9-1.1-1.4-1.4
			C656.5,354.9,635.2,342.7,613.9,330.5z"/>
		<path class="st8" d="M613.9,330.5c21.3,12.2,42.5,24.4,63.8,36.7c0.6,0.3,1,1,1.4,1.4c-13.8,25.1-16,51.2-6.2,78.2
			c1.7,4.8,4.1,9.4,6.2,14.1c-1.2,0.7-2.4,1.3-3.6,2c-20.5,11.7-41.1,23.5-61.6,35.2c-10.8-17.7-17.4-36.9-20.6-57.3
			c-6-38.4,0.6-74.6,19.4-108.6C613.2,331.6,613.6,331.1,613.9,330.5z"/>
		<path class="st9" d="M759.6,321.8c0-25,0-50,0-75.1c23.2-1,45.2,4.3,66.2,13.5c33.9,14.8,60.5,37.9,78.8,70.3
			c-19.7,11.3-39.4,22.6-59.1,33.9c-2.1,1.2-4.2,2.3-6.3,3.4c-9.9-15.5-22.6-28-39.2-36.3C787.2,325.1,773.6,322.8,759.6,321.8z"/>
		<path class="st10" d="M614,498.1c20.5-11.8,41.1-23.5,61.6-35.2c1.2-0.7,2.4-1.3,3.6-2c8.7,13.3,19.4,24.7,33,33.1
			c-4.7,8.7-9.3,17.5-14.1,26.1c-6.7,11.9-13.6,23.8-20.4,35.6c-0.8,1.3-1.9,2.4-2.8,3.6c-20.4-11.9-37.6-27.4-51.5-46.4
			C619.9,508.2,617.1,503,614,498.1z"/>
	</g>
	<path class="st11" d="M1187.3,218"/>
	<path class="st11" d="M205.4,217.2"/>
	<path class="st2" d="M52,886.9c3.6,7.1,14.7,12.3,28,12.3h1186c13.2,0,24.4-5.2,28-12.3H52L52,886.9L52,886.9z M52,886.9"/>
	<path class="st2" d="M69.1,255.9c0-12.4,10-22.5,22.3-22.5H515c12.3,0,22.3,10,22.3,22.5v570.5c0,12.4-10,22.5-22.3,22.5H91.4
		c-12.3,0-22.3-10.1-22.3-22.5V255.9L69.1,255.9L69.1,255.9z M69.1,255.9"/>
	<path class="st2" d="M94.2,276.5v500.6h418V276.5H94.2L94.2,276.5z M94.2,276.5"/>
	<path class="st2" d="M303,259c2.4,0,4.3-1.9,4.3-4.4c0-2.4-1.9-4.4-4.3-4.4s-4.3,1.9-4.3,4.4C298.6,257,300.6,259,303,259L303,259z
		 M303,259"/>
	<path class="st3" d="M303,259c2.4,0,4.3-1.9,4.3-4.4c0-2.4-1.9-4.4-4.3-4.4c-2.4,0-4.3,1.9-4.3,4.4C298.6,257,300.6,259,303,259
		L303,259z M303,259"/>
	<path class="st2" d="M1276.9,826.3c0,12.5-10.1,22.6-22.5,22.6h-166.5c-12.4,0-22.5-10.1-22.5-22.6V428.4
		c0-12.5,10.1-22.6,22.5-22.6h166.5c12.4,0,22.5,10.1,22.5,22.6V826.3L1276.9,826.3L1276.9,826.3z M1276.9,826.3"/>
	<path class="st2" d="M1152.4,448.7c0,2.4,1.8,4.4,4,4.4h27.6c2.2,0,4-2,4-4.4l0,0c0-2.4-1.8-4.4-4-4.4h-27.6
		C1154.2,444.4,1152.4,446.3,1152.4,448.7L1152.4,448.7L1152.4,448.7L1152.4,448.7z M1152.4,448.7"/>
	<path class="st3" d="M1152.3,448.7c0,2.5,1.8,4.5,4,4.5h27.8c2.2,0,4.1-2,4.1-4.5l0,0c0-2.5-1.8-4.5-4.1-4.5h-27.8
		C1154.1,444.3,1152.3,446.3,1152.3,448.7L1152.3,448.7L1152.3,448.7L1152.3,448.7z M1152.3,448.7"/>
	<path class="st2" d="M1169.1,431.3c2.4,0,4.3-1.9,4.3-4.4c0-2.4-1.9-4.4-4.3-4.4s-4.3,1.9-4.3,4.4
		C1164.8,429.3,1166.7,431.3,1169.1,431.3L1169.1,431.3z M1169.1,431.3"/>
	<path class="st3" d="M1169.1,431.3c2.4,0,4.3-1.9,4.3-4.4c0-2.4-1.9-4.4-4.3-4.4s-4.3,1.9-4.3,4.4
		C1164.8,429.3,1166.7,431.3,1169.1,431.3L1169.1,431.3z M1169.1,431.3"/>
	<path class="st2" d="M1077.9,470.4v313.9h184.6V470.4H1077.9L1077.9,470.4z M1077.9,470.4"/>
	<g>
		<path class="st12" d="M376.8,741.3c0-78.1,0-155.6,0-233.8c9.3,0,18.4-0.1,27.5,0.1c1.1,0,2.6,1.7,3.1,2.9
			c0.6,1.3,0.2,2.9,0.2,4.4c0,73.3,0,146.5,0.1,219.8c0,5-1.5,6.7-6.4,6.6C393.3,741.1,385.3,741.3,376.8,741.3z"/>
		<path class="st13" d="M191.2,563.4c9.2,0,18-0.1,26.8,0.1c1.2,0,2.8,1.8,3.5,3.2c0.6,1.2,0.2,2.9,0.2,4.4c0,54.4,0,108.8,0,163.2
			c0,6.6-0.2,6.8-6.6,6.8c-7.3,0-14.6,0-22,0c-0.5,0-1-0.1-1.9-0.3C191.2,682,191.2,623.1,191.2,563.4z"/>
		<path class="st14" d="M469.5,740.4c-10.4,0-20.7,0-31.5,0c0-2.1,0-3.9,0-5.7c0-34.8,0-69.6,0-104.3c0-6.9,0-6.9,7-6.9
			c6.7,0,13.3,0,20,0c3.4,0,5.1,1.5,5,5.1c-0.1,36.8-0.1,73.5-0.1,110.3C469.9,739.2,469.7,739.5,469.5,740.4z"/>
		<path class="st15" d="M251.9,740.3c0-19.1,0-38.1,0-57.1c0-13.1,0.2-26.3-0.1-39.4c-0.1-4.6,1.6-6.3,6.1-6.3c7,0.1,14,0,21,0
			c3.2,0,5,1.3,5,4.7c0,32.1-0.1,64.2-0.1,96.3c0,0.3-0.2,0.6-0.5,1.6C273,740.3,262.6,740.3,251.9,740.3z"/>
		<path class="st16" d="M160.1,740.8c-11,0-21.2,0-31.7,0c-0.1-1.9-0.2-3.5-0.2-5.1c0-27.4,0.1-54.8-0.1-82.3c0-4.8,1.4-6.4,6.2-6.1
			c7.1,0.4,14.3,0.2,21.4,0.1c3.3,0,5,1.3,4.9,4.7c-0.2,19.8-0.4,39.5-0.5,59.3C160,720.9,160.1,730.6,160.1,740.8z"/>
		<path class="st17" d="M345.5,740.3c-10.5,0-20.2,0-30.6,0c-0.1-1.4-0.4-2.9-0.4-4.3c0-12.1,0.1-24.3-0.1-36.4
			c-0.1-4.1,1.3-5.7,5.5-5.5c6.8,0.2,13.6,0.1,20.5,0.1c2.9,0,5,1.1,5,4.2C345.6,712.1,345.5,725.9,345.5,740.3z"/>
	</g>
	<g>
		<path class="st12" d="M1209.9,778.3c0-37,0-73.7,0-110.7c4.4,0,8.7,0,13,0.1c0.5,0,1.2,0.8,1.5,1.4c0.3,0.6,0.1,1.4,0.1,2.1
			c0,34.7,0,69.4,0.1,104.1c0,2.4-0.7,3.2-3,3.1C1217.7,778.2,1213.9,778.3,1209.9,778.3z"/>
		<path class="st13" d="M1122,694.1c4.4,0,8.5-0.1,12.7,0.1c0.6,0,1.3,0.9,1.6,1.5c0.3,0.6,0.1,1.4,0.1,2.1c0,25.8,0,51.5,0,77.3
			c0,3.1-0.1,3.2-3.1,3.2c-3.5,0-6.9,0-10.4,0c-0.2,0-0.5-0.1-0.9-0.1C1122,750.3,1122,722.3,1122,694.1z"/>
		<path class="st14" d="M1253.7,777.9c-4.9,0-9.8,0-14.9,0c0-1,0-1.8,0-2.7c0-16.5,0-32.9,0-49.4c0-3.2,0-3.2,3.3-3.2
			c3.2,0,6.3,0,9.5,0c1.6,0,2.4,0.7,2.4,2.4c0,17.4,0,34.8-0.1,52.3C1253.9,777.3,1253.9,777.5,1253.7,777.9z"/>
		<path class="st15" d="M1150.7,777.9c0-9.1,0-18,0-27c0-6.2,0.1-12.5,0-18.7c0-2.2,0.8-3,2.9-3c3.3,0.1,6.6,0,9.9,0
			c1.5,0,2.4,0.6,2.4,2.2c0,15.2,0,30.4-0.1,45.6c0,0.1-0.1,0.3-0.2,0.8C1160.7,777.9,1155.7,777.9,1150.7,777.9z"/>
		<path class="st16" d="M1107.2,778.1c-5.2,0-10,0-15,0c0-0.9-0.1-1.7-0.1-2.4c0-13,0-26-0.1-39c0-2.3,0.6-3,2.9-2.9
			c3.4,0.2,6.8,0.1,10.2,0c1.6,0,2.4,0.6,2.3,2.2c-0.1,9.4-0.2,18.7-0.2,28.1C1107.2,768.7,1107.2,773.2,1107.2,778.1z"/>
		<path class="st17" d="M1195,777.9c-5,0-9.6,0-14.5,0c-0.1-0.7-0.2-1.4-0.2-2c0-5.8,0.1-11.5,0-17.3c0-1.9,0.6-2.7,2.6-2.6
			c3.2,0.1,6.5,0.1,9.7,0c1.4,0,2.4,0.5,2.4,2C1195.1,764.5,1195,771,1195,777.9z"/>
	</g>
	<g>
		<path class="st5" d="M378.8,503.2c-15.4,15.4-33.9,25.2-55.2,29.5c-24.1,4.9-47.2,1.7-69.3-9c-2.3-1.1-4.5-2.4-6.8-3.6
			c0.6-0.8,1.3-1.5,1.8-2.3c4.4-7.7,8.9-15.3,13.2-23c3.1-5.6,6.1-11.3,9.1-16.9c14,7.9,28.8,10.2,44.5,6.6
			c11.1-2.5,20.3-8.3,28.4-16c0.9,1,1.7,2.1,2.6,3C357.8,482,368.3,492.6,378.8,503.2z"/>
		<path class="st6" d="M378.8,503.2c-10.5-10.6-21-21.2-31.5-31.8c-0.9-0.9-1.7-2-2.6-3c11.1-11.6,17-25.4,17.3-41.5
			c0.2-10.9-2.8-21.1-8.1-30.6c1.4-0.7,2.7-1.4,4.1-2.2c12.7-7.3,25.5-14.6,38.2-21.9c5.8,9.5,9.8,19.7,12,30.6
			C415.9,441.3,405.9,474.8,378.8,503.2z"/>
		<path class="st7" d="M208.2,372.2c4.2-8.6,10.4-15.7,17.1-22.4c17-17.1,37.7-27.3,61.5-30.9c5.1-0.8,10.4-0.6,15.6-0.8
			c0,16.2,0,32.4,0,48.5c-0.9,0.1-1.8,0.2-2.7,0.2c-11.4,0.5-21.8,3.9-31.2,10.4c-7.6,5.2-13.3,12-18.2,19.6
			c-0.3-0.3-0.6-0.7-0.9-0.9C235.7,387.9,222,380.1,208.2,372.2z"/>
		<path class="st8" d="M208.2,372.2c13.8,7.9,27.5,15.8,41.3,23.7c0.4,0.2,0.6,0.6,0.9,0.9c-8.9,16.3-10.3,33.1-4,50.6
			c1.1,3.1,2.7,6.1,4,9.1c-0.8,0.4-1.6,0.8-2.3,1.3c-13.3,7.6-26.5,15.2-39.8,22.8c-7-11.4-11.2-23.9-13.3-37
			c-3.9-24.8,0.4-48.3,12.6-70.2C207.7,372.9,208,372.5,208.2,372.2z"/>
		<path class="st9" d="M302.4,366.6c0-16.2,0-32.4,0-48.5c15-0.7,29.2,2.8,42.8,8.7c21.9,9.5,39.1,24.5,50.9,45.5
			c-12.7,7.3-25.5,14.6-38.2,21.9c-1.3,0.8-2.7,1.5-4.1,2.2c-6.4-10-14.6-18.1-25.4-23.5C320.3,368.7,311.5,367.2,302.4,366.6z"/>
		<path class="st10" d="M208.3,480.6c13.3-7.6,26.5-15.2,39.8-22.8c0.8-0.4,1.6-0.9,2.3-1.3c5.7,8.6,12.5,16,21.4,21.4
			c-3,5.6-6,11.3-9.1,16.9c-4.3,7.7-8.8,15.4-13.2,23c-0.5,0.8-1.2,1.6-1.8,2.3c-13.2-7.7-24.3-17.7-33.3-30
			C212.1,487.1,210.3,483.7,208.3,480.6z"/>
	</g>
	<g>
		<path class="st5" d="M1221.8,620.2c-10.6,10.5-23.3,17.3-37.9,20.3c-16.6,3.3-32.4,1.2-47.6-6.2c-1.6-0.8-3.1-1.6-4.6-2.5
			c0.4-0.5,0.9-1,1.3-1.6c3-5.3,6.1-10.5,9.1-15.8c2.2-3.8,4.2-7.7,6.3-11.6c9.6,5.4,19.8,7,30.5,4.5c7.6-1.7,13.9-5.7,19.5-11
			c0.6,0.7,1.1,1.4,1.8,2.1C1207.3,605.6,1214.6,612.9,1221.8,620.2z"/>
		<path class="st6" d="M1221.8,620.2c-7.2-7.3-14.5-14.6-21.7-21.9c-0.6-0.6-1.2-1.4-1.8-2.1c7.6-8,11.7-17.4,11.9-28.5
			c0.1-7.5-1.9-14.5-5.6-21c0.9-0.5,1.9-1,2.8-1.5c8.8-5,17.5-10,26.3-15.1c4,6.5,6.7,13.6,8.2,21
			C1247.3,577.7,1240.4,600.7,1221.8,620.2z"/>
		<path class="st7" d="M1104.6,530.2c2.9-5.9,7.2-10.8,11.7-15.4c11.7-11.8,25.9-18.8,42.2-21.3c3.5-0.5,7.1-0.4,10.7-0.6
			c0,11.1,0,22.2,0,33.3c-0.6,0.1-1.2,0.1-1.8,0.2c-7.8,0.3-15,2.7-21.4,7.1c-5.2,3.6-9.2,8.2-12.5,13.5c-0.2-0.2-0.4-0.5-0.6-0.6
			C1123.5,541,1114.1,535.6,1104.6,530.2z"/>
		<path class="st8" d="M1104.6,530.2c9.4,5.4,18.9,10.9,28.3,16.3c0.3,0.1,0.4,0.4,0.6,0.6c-6.1,11.2-7.1,22.7-2.8,34.7
			c0.8,2.1,1.8,4.2,2.8,6.3c-0.5,0.3-1.1,0.6-1.6,0.9c-9.1,5.2-18.2,10.4-27.4,15.7c-4.8-7.9-7.7-16.4-9.1-25.4
			c-2.7-17,0.3-33.1,8.6-48.2C1104.3,530.7,1104.5,530.4,1104.6,530.2z"/>
		<path class="st9" d="M1169.3,526.3c0-11.1,0-22.2,0-33.3c10.3-0.5,20.1,1.9,29.4,6c15.1,6.6,26.9,16.8,35,31.2
			c-8.8,5-17.5,10-26.3,15.1c-0.9,0.5-1.9,1-2.8,1.5c-4.4-6.9-10-12.4-17.4-16.1C1181.6,527.8,1175.5,526.7,1169.3,526.3z"/>
		<path class="st10" d="M1104.6,604.6c9.1-5.2,18.2-10.4,27.4-15.7c0.5-0.3,1.1-0.6,1.6-0.9c3.9,5.9,8.6,11,14.7,14.7
			c-2.1,3.9-4.1,7.8-6.3,11.6c-3,5.3-6,10.6-9.1,15.8c-0.3,0.6-0.8,1.1-1.3,1.6c-9.1-5.3-16.7-12.2-22.9-20.6
			C1107.3,609.1,1106,606.8,1104.6,604.6z"/>
	</g>
	<g>
		<defs>
			<rect id="SVGID_1_" x="537" y="482" width="507" height="327"/>
		</defs>
		<clipPath id="SVGID_2_">
			<use xlink:href="#SVGID_1_"  style="overflow:visible;"/>
		</clipPath>
		<g class="st18">
			<path class="st12" d="M884.8,864.7c0-106.7,0-212.5,0-319.2c12.7,0,25.1-0.1,37.5,0.2c1.5,0,3.5,2.3,4.3,4c0.8,1.7,0.2,4,0.2,6.1
				c0,100-0.1,200,0.1,300.1c0,6.9-2,9.2-8.8,9C907.3,864.4,896.4,864.7,884.8,864.7z"/>
			<path class="st13" d="M631.4,621.9c12.5,0,24.6-0.2,36.6,0.2c1.7,0.1,3.8,2.5,4.7,4.3c0.8,1.7,0.3,4,0.3,6
				c0,74.3,0,148.6,0,222.9c0,9-0.3,9.3-9,9.3c-10,0-20,0-30,0c-0.7,0-1.3-0.2-2.6-0.4C631.4,783.8,631.4,703.3,631.4,621.9z"/>
			<path class="st14" d="M1011.3,863.5c-14.3,0-28.2,0-43,0c0-2.9,0-5.3,0-7.7c0-47.5,0-95,0-142.5c0-9.4,0-9.4,9.5-9.4
				c9.1,0,18.2,0,27.3,0c4.7,0,6.9,2,6.9,6.9c-0.1,50.2-0.1,100.4-0.2,150.6C1011.8,861.9,1011.6,862.3,1011.3,863.5z"/>
			<path class="st15" d="M714.1,863.4c0-26.1,0-52,0-77.9c0-17.9,0.2-35.9-0.1-53.8c-0.1-6.3,2.3-8.7,8.3-8.5
				c9.5,0.2,19.1,0.1,28.6,0c4.3,0,6.9,1.8,6.8,6.5c-0.1,43.8-0.1,87.7-0.1,131.5c0,0.4-0.2,0.9-0.7,2.2
				C743,863.4,728.8,863.4,714.1,863.4z"/>
			<path class="st16" d="M588.8,864c-15,0-28.9,0-43.3,0c-0.1-2.6-0.3-4.8-0.3-7c0-37.4,0.1-74.9-0.2-112.3c0-6.6,1.9-8.7,8.5-8.4
				c9.7,0.5,19.5,0.2,29.3,0.1c4.5-0.1,6.8,1.8,6.7,6.4c-0.2,27-0.5,54-0.7,81C588.7,837,588.8,850.1,588.8,864z"/>
			<path class="st17" d="M842,863.4c-14.3,0-27.6,0-41.7,0c-0.2-2-0.5-3.9-0.5-5.8c0-16.6,0.1-33.2-0.1-49.8
				c-0.1-5.6,1.8-7.7,7.5-7.5c9.3,0.3,18.6,0.1,27.9,0.1c4,0,6.9,1.5,6.9,5.7C842.1,824.9,842,843.8,842,863.4z"/>
		</g>
	</g>
</g>
</svg>
