<?xml version="1.0" encoding="utf-8"?>
<!-- Generator: Adobe Illustrator 22.1.0, SVG Export Plug-In . SVG Version: 6.00 Build 0)  -->
<svg version="1.1" id="Layer_1" xmlns="http://www.w3.org/2000/svg" xmlns:xlink="http://www.w3.org/1999/xlink" x="0px" y="0px"
	 viewBox="0 0 500 180" style="enable-background:new 0 0 500 180;" xml:space="preserve">
<style type="text/css">
	.st0{fill:url(#SVGID_1_);}
	.st1{fill:url(#SVGID_2_);}
	.st2{fill:url(#SVGID_3_);}
	.st3{fill:url(#SVGID_4_);}
	.st4{fill:url(#SVGID_5_);}
	.st5{fill:url(#SVGID_6_);}
	.st6{fill:url(#SVGID_7_);}
	.st7{fill:url(#SVGID_8_);}
	.st8{fill:url(#SVGID_9_);}
	.st9{fill:#FFFFFF;}
</style>
<g>
	<linearGradient id="SVGID_1_" gradientUnits="userSpaceOnUse" x1="40.5" y1="99.4629" x2="454.8697" y2="99.4629">
		<stop  offset="0" style="stop-color:#FCB045"/>
		<stop  offset="0.5196" style="stop-color:#FD1D1D"/>
		<stop  offset="1" style="stop-color:#833AB4"/>
	</linearGradient>
	<path class="st0" d="M73.3,77.2c0,0-10.8-1.7-17.9-1.7c-6.8,0-14.1,2-14.1,10.5c0,6.5,2.8,8.5,15,10.4c13.8,2.2,19.2,4.2,19.2,14.1
		c0,12.3-7.6,16.1-20,16.1c-6,0-17.4-1.7-17.4-1.7l0.4-3.5c0,0,11.4,1.8,16.8,1.8c9.9,0,16.4-2.3,16.4-12.4c0-7.6-3.8-9.1-16.4-11
		c-12.3-1.9-17.8-3.9-17.8-13.7c0-11.2,9.5-14.1,18-14.1c8.1,0,18.1,1.6,18.1,1.6L73.3,77.2z"/>
	<linearGradient id="SVGID_2_" gradientUnits="userSpaceOnUse" x1="40.5" y1="99.9375" x2="454.8697" y2="99.9375">
		<stop  offset="0" style="stop-color:#FCB045"/>
		<stop  offset="0.5196" style="stop-color:#FD1D1D"/>
		<stop  offset="1" style="stop-color:#833AB4"/>
	</linearGradient>
	<path class="st1" d="M126.7,73.1v52.7H123v-4.2c0,0-8.2,5.2-17.3,5.2c-14.3,0-17.3-5.8-17.3-26.3V73.1h3.7v27.2
		c0,17.9,1.9,23.1,13.6,23.1c9.4,0,17.3-5.3,17.3-5.3v-45H126.7z"/>
	<linearGradient id="SVGID_3_" gradientUnits="userSpaceOnUse" x1="40.5" y1="98.9355" x2="454.8697" y2="98.9355">
		<stop  offset="0" style="stop-color:#FCB045"/>
		<stop  offset="0.5196" style="stop-color:#FD1D1D"/>
		<stop  offset="1" style="stop-color:#833AB4"/>
	</linearGradient>
	<path class="st2" d="M143.4,73.1h3.7v8.2c0,0,9.3-7.1,20.9-9.3v3.8c-10.3,2.1-20.9,9-20.9,9v41h-3.7V73.1z"/>
	<linearGradient id="SVGID_4_" gradientUnits="userSpaceOnUse" x1="40.5" y1="99.4629" x2="454.8697" y2="99.4629">
		<stop  offset="0" style="stop-color:#FCB045"/>
		<stop  offset="0.5196" style="stop-color:#FD1D1D"/>
		<stop  offset="1" style="stop-color:#833AB4"/>
	</linearGradient>
	<path class="st3" d="M177.3,73.1l14.9,49.4h4.6l15.3-49.4h3.9l-16.4,52.7h-10.3l-16.4-52.7H177.3z"/>
	<linearGradient id="SVGID_5_" gradientUnits="userSpaceOnUse" x1="40.5" y1="99.4629" x2="454.8697" y2="99.4629">
		<stop  offset="0" style="stop-color:#FCB045"/>
		<stop  offset="0.5196" style="stop-color:#FD1D1D"/>
		<stop  offset="1" style="stop-color:#833AB4"/>
	</linearGradient>
	<path class="st4" d="M263.4,122.5l0.2,3.4c0,0-11.8,0.9-19.5,0.9c-15.7-0.1-19.8-10.1-19.8-27.3c0-20.9,9.3-27.3,21.3-27.3
		c13,0,20,7.1,20,25.3v3.5h-37.4c0,14.6,3.8,22.5,16,22.5C251.6,123.4,263.4,122.5,263.4,122.5z M261.8,97.6c0-16.1-5.2-22-16.1-22
		c-10.5,0-17.4,6-17.4,22H261.8z"/>
	<linearGradient id="SVGID_6_" gradientUnits="userSpaceOnUse" x1="40.5" y1="111.5935" x2="454.8697" y2="111.5935">
		<stop  offset="0" style="stop-color:#FCB045"/>
		<stop  offset="0.5196" style="stop-color:#FD1D1D"/>
		<stop  offset="1" style="stop-color:#833AB4"/>
	</linearGradient>
	<path class="st5" d="M277.4,73.1l15.5,49.4h4.3l15.6-49.4h3.9l-24.2,77h-3.9l7.6-24.3h-6.4l-16.4-52.7H277.4z"/>
	<linearGradient id="SVGID_7_" gradientUnits="userSpaceOnUse" x1="40.5" y1="87.8069" x2="454.8697" y2="87.8069">
		<stop  offset="0" style="stop-color:#FCB045"/>
		<stop  offset="0.5196" style="stop-color:#FD1D1D"/>
		<stop  offset="1" style="stop-color:#833AB4"/>
	</linearGradient>
	<path class="st6" d="M367.9,98.6c0,19.7-4.4,28.2-24,28.2c-7.2,0-15.7-0.9-15.7-0.9v-77h3.7v27.5c0,0,8.8-4.2,18.1-4.2
		C364.3,72.1,367.9,80.5,367.9,98.6z M364,98.6c0-15.6-2.3-23.1-14-23.1c-9.4,0-18.1,4.2-18.1,4.2v43c0,0,8.2,0.6,11.9,0.6
		C361.3,123.4,364,115.6,364,98.6z"/>
	<linearGradient id="SVGID_8_" gradientUnits="userSpaceOnUse" x1="40.5" y1="89.7666" x2="454.8697" y2="89.7666">
		<stop  offset="0" style="stop-color:#FCB045"/>
		<stop  offset="0.5196" style="stop-color:#FD1D1D"/>
		<stop  offset="1" style="stop-color:#833AB4"/>
	</linearGradient>
	<path class="st7" d="M421.4,83.7c-1.2-5.5-4.3-9.5-9-12.6c1.3-2.8,2.6-5.5,4-8.1c0.4-0.6,1.2-1.2,1.9-1.4c2.1-0.5,3.6-1.9,3.9-3.8
		c0.3-1.8-0.8-3.7-2.4-4.5c-1.8-0.9-3.8-0.5-5.1,1c-1.4,1.5-1.5,3.3-0.4,5.4c0.2,0.4,0.4,1.1,0.3,1.5c-1.4,2.9-2.8,5.8-4.3,8.8
		c-5.6-2.3-10.9-2.2-16.3,0c-1.4-2.7-2.6-5.4-4-8.1c-0.5-1-0.6-1.6,0-2.6c0.5-0.7,0.6-1.9,0.5-2.8c-0.3-2.3-2.4-3.9-4.5-3.7
		c-2.1,0.1-3.9,1.9-4.1,4c-0.2,2.1,1.3,4.2,3.5,4.7c0.7,0.2,1.7,0.3,1.9,0.8c1.5,2.8,2.9,5.8,4.3,8.6c-6.3,5.5-8.5,9.6-9.5,13.4
		c0,0,0,0,0,0c-1.1,3.7-1.6,8.4-1.6,14.2c0,21.2,4,28.3,21.4,28.3c17.4,0,21.4-7.1,21.4-28.3C423.3,92.4,422.7,87.5,421.4,83.7z
		 M411.2,77.1c0,1.4-1.3,2.7-2.7,2.8c-1.5,0-2.9-1.3-2.9-2.8c0-0.5,0.2-1,0.4-1.4c2,0.2,3.6,0.6,5.1,1.2
		C411.2,77,411.2,77,411.2,77.1z M398.4,77.2c0,1.4-1.3,2.7-2.8,2.7c-1.5,0-2.8-1.4-2.7-2.9c0-0.1,0-0.1,0-0.2
		c1.5-0.6,3.1-0.9,5-1.1C398.2,76.1,398.4,76.7,398.4,77.2z M401.8,123.4c-15.6,0-17.5-6.8-17.5-24.9c0-6.1,0.5-10.7,1.6-14.1
		c10.5,0,21.2,0.1,31.8,0.1c1.1,3.4,1.6,8,1.6,14C419.4,116.7,417.5,123.4,401.8,123.4z"/>
	<linearGradient id="SVGID_9_" gradientUnits="userSpaceOnUse" x1="40.5" y1="91.3933" x2="454.8697" y2="91.3933">
		<stop  offset="0" style="stop-color:#FCB045"/>
		<stop  offset="0.5196" style="stop-color:#FD1D1D"/>
		<stop  offset="1" style="stop-color:#833AB4"/>
	</linearGradient>
	<path class="st8" d="M444,76.5v27.6c0,15.7,1.2,19.4,9.7,19.4c3,0,10.3-0.8,10.3-0.8l0.3,3.4c0,0-7,0.8-10.7,0.8
		c-9.6,0-13.4-3.6-13.4-18.8V76.5H432v-3.4h8.3V55.9h3.7v17.2h19.2v3.4H444z"/>
</g>
<path class="st9" d="M398.4,77.2c0-1.4-1.2-2.7-2.6-2.8c-1.6,0-2.8,1-2.9,2.5c-0.1,1.5,1.2,2.9,2.7,2.9
	C397.1,79.9,398.3,78.6,398.4,77.2z"/>
<path class="st9" d="M411.2,77.2c0-1.4-1.2-2.7-2.6-2.8c-1.6,0-2.8,1-2.9,2.5c-0.1,1.5,1.2,2.9,2.7,2.9
	C409.9,79.9,411.2,78.6,411.2,77.2z"/>
</svg>
