<?xml version="1.0" encoding="utf-8"?>
<!-- Generator: Adobe Illustrator 22.1.0, SVG Export Plug-In . SVG Version: 6.00 Build 0)  -->
<svg version="1.1" id="Layer_1" xmlns="http://www.w3.org/2000/svg" xmlns:xlink="http://www.w3.org/1999/xlink" x="0px" y="0px"
	 viewBox="0 0 32 32" style="enable-background:new 0 0 32 32;" xml:space="preserve">
<style type="text/css">
	.st0{fill:#FFFFFF;}
</style>
<title>tumblr</title>
<path class="st0" d="M18,14v7.3c0,1.9,0,2.9,0.2,3.5c0.2,0.5,0.7,1.1,1.2,1.4c0.7,0.4,1.5,0.6,2.4,0.6c1.6,0,2.6-0.2,4.2-1.3v4.8
	c-1.4,0.6-2.6,1-3.7,1.3C21.2,31.9,20,32,18.7,32c-1.5,0-2.3-0.2-3.4-0.6c-1.1-0.4-2.1-0.9-2.9-1.6c-0.8-0.7-1.3-1.4-1.7-2.2
	s-0.5-1.9-0.5-3.4V13.1H6V8.6c1.3-0.4,2.7-1,3.6-1.8c0.9-0.8,1.6-1.7,2.2-2.7C12.3,3,12.6,1.7,12.8,0H18v8h8v6L18,14L18,14z"/>
</svg>
