<?xml version="1.0" encoding="utf-8"?>
<!-- Generator: Adobe Illustrator 22.1.0, SVG Export Plug-In . SVG Version: 6.00 Build 0)  -->
<svg version="1.1" id="Layer_1" xmlns="http://www.w3.org/2000/svg" xmlns:xlink="http://www.w3.org/1999/xlink" x="0px" y="0px"
	 viewBox="0 0 133.3 133.3" style="enable-background:new 0 0 133.3 133.3;" xml:space="preserve">
<style type="text/css">
	.st0{fill:url(#SVGID_1_);}
	.st1{fill:#FFFFFF;}
</style>
<g>
	<linearGradient id="SVGID_1_" gradientUnits="userSpaceOnUse" x1="38.2822" y1="8.1154" x2="92.6589" y2="111.2984">
		<stop  offset="0" style="stop-color:#833AB4"/>
		<stop  offset="0.4804" style="stop-color:#FD1D1D"/>
		<stop  offset="1" style="stop-color:#FCB045"/>
	</linearGradient>
	<path class="st0" d="M97.6,56.6c-2-9-7.1-15.7-14.8-20.8c2.2-4.5,4.3-9,6.6-13.3c0.6-1.1,2-2.1,3.2-2.4c3.5-0.9,5.9-3.1,6.4-6.3
		c0.4-2.9-1.3-6.1-4-7.4c-3-1.5-6.2-0.8-8.5,1.7c-2.3,2.5-2.5,5.5-0.7,8.9c0.4,0.7,0.7,1.9,0.4,2.5c-2.2,4.8-4.7,9.6-7.1,14.5
		c-9.2-3.7-17.9-3.6-26.8,0c-2.2-4.5-4.3-8.9-6.6-13.3c-0.8-1.6-1-2.7,0.1-4.3c0.8-1.2,1.1-3.1,0.9-4.5c-0.5-3.7-3.9-6.4-7.4-6.2
		c-3.5,0.2-6.4,3.1-6.8,6.6C32,15.7,34.5,19,38.2,20c1.1,0.3,2.8,0.5,3.2,1.4c2.5,4.7,4.8,9.5,7.1,14.2c-10.3,9.1-14,15.8-15.7,22.1
		c0,0,0,0,0,0C31,63.8,30.1,71.5,30.1,81c0,34.9,6.6,46.6,35.3,46.6c28.7,0,35.3-11.6,35.3-46.6C100.7,70.9,99.7,62.8,97.6,56.6z
		 M80.8,45.7c0,2.3-2.1,4.5-4.4,4.6c-2.5,0.1-4.8-2.1-4.7-4.6c0-0.8,0.3-1.6,0.7-2.2c3.2,0.4,6,1,8.4,2
		C80.8,45.6,80.8,45.6,80.8,45.7z M59.7,45.9c-0.1,2.4-2.2,4.4-4.6,4.4c-2.5,0-4.6-2.3-4.5-4.8c0-0.1,0-0.2,0-0.3
		c2.4-0.9,5.1-1.5,8.3-1.8C59.4,44.1,59.7,45,59.7,45.9z M65.4,122c-25.7,0-28.8-11.1-28.8-41c0-10,0.8-17.6,2.7-23.3
		c17.3,0,35,0.2,52.4,0.2c1.9,5.6,2.6,13.2,2.6,23.1C94.2,110.9,91.1,122,65.4,122z"/>
	<path class="st1" d="M59.7,45.9c0.1-2.4-1.9-4.5-4.3-4.5c-2.6-0.1-4.6,1.7-4.7,4.2c-0.1,2.5,2,4.8,4.5,4.8
		C57.5,50.3,59.6,48.3,59.7,45.9z"/>
	<path class="st1" d="M80.8,45.9c0.1-2.4-1.9-4.5-4.3-4.5c-2.6-0.1-4.6,1.7-4.7,4.2c-0.1,2.5,2,4.8,4.5,4.8
		C78.6,50.3,80.7,48.3,80.8,45.9z"/>
</g>
</svg>
