<?xml version="1.0" encoding="utf-8"?>
<!-- Generator: Adobe Illustrator 22.1.0, SVG Export Plug-In . SVG Version: 6.00 Build 0)  -->
<svg version="1.1" xmlns="http://www.w3.org/2000/svg" xmlns:xlink="http://www.w3.org/1999/xlink" x="0px" y="0px"
	 viewBox="0 0 1920 1080" style="enable-background:new 0 0 1920 1080;" xml:space="preserve">
<style type="text/css">
	.st0{fill:#D1D3D4;stroke:#BCBEC0;stroke-width:0.5;stroke-miterlimit:10;}
	.st1{fill:#FFFFFF;stroke:#BCBEC0;stroke-width:0.5;stroke-miterlimit:10;}
	.st2{fill-rule:evenodd;clip-rule:evenodd;fill:none;stroke:#BCBEC0;stroke-width:0.5;stroke-miterlimit:10;}
	.st3{fill:#E6E7E8;stroke:#BCBEC0;stroke-width:0.5;stroke-miterlimit:10;}
	.st4{fill:none;stroke:#BCBEC0;stroke-width:0.5;stroke-miterlimit:10;}
	.st5{fill:#00BADD;}
	.st6{fill:#00D1DC;}
	.st7{fill:#536EAE;}
	.st8{fill:#0089C7;}
	.st9{fill:#00E6D5;}
	.st10{fill:#00A3D7;}
	.st11{fill:#F1F2F2;stroke:#BCBEC0;stroke-width:0.5;stroke-miterlimit:10;}
	.st12{fill:#2DD999;}
	.st13{fill:#D1F072;}
	.st14{fill:#00CEA6;}
	.st15{fill:#A0EB7E;}
	.st16{fill:#FEF46B;}
	.st17{fill:#6FE38B;}
	.st18{clip-path:url(#SVGID_2_);}
</style>
<g id="Layer_2">
	<path class="st0" d="M1491.7,312.6c0-23-18.6-41.6-41.4-41.6H476.2c-22.9,0-41.5,18.6-41.5,41.6v651.9h1057L1491.7,312.6
		L1491.7,312.6L1491.7,312.6z"/>
	<polygon class="st1" points="477.4,311.8 477.4,923.8 1449.1,923.8 1449.1,311.8 477.4,311.8 	"/>
	<path class="st0" d="M1603,1002.4c0,0.6-0.5,1.1-1.1,1.1H319c-0.6,0-1.1-0.5-1.1-1.1v-36.8c0-0.6,0.5-1.1,1.1-1.1h1283
		c0.6,0,1.1,0.5,1.1,1.1V1002.4L1603,1002.4L1603,1002.4z M1603,1002.4"/>
	<path class="st0" d="M318.8,1003.5c3.7,7.5,15.2,13,28.9,13h1225.4c13.7,0,25.2-5.5,28.9-13H318.8L318.8,1003.5L318.8,1003.5z
		 M318.8,1003.5"/>
	<path class="st0" d="M1584.5,941.2c0,12.9-10.4,23.4-23.3,23.4h-172.2c-12.9,0-23.3-10.5-23.3-23.4V529.9
		c0-12.9,10.4-23.4,23.3-23.4h172.2c12.9,0,23.3,10.5,23.3,23.4V941.2L1584.5,941.2L1584.5,941.2z M1584.5,941.2"/>
	<path class="st0" d="M336.4,351.7c0-12.8,10.3-23.2,23-23.2h437.9c12.7,0,23,10.4,23,23.2v589.7c0,12.8-10.3,23.2-23,23.2H359.5
		c-12.7,0-23-10.4-23-23.2V351.7L336.4,351.7L336.4,351.7z M336.4,351.7"/>
	<path class="st1" d="M362.4,373v517.4h432.1V373H362.4L362.4,373z M362.4,373"/>
	<path class="st1" d="M1378.6,573.3v324.5h191V573.3H1378.6L1378.6,573.3z M1378.6,573.3"/>
	<path class="st2" d="M1602.9,1002.3c0,0.6-0.5,1.1-1.1,1.1H319.1c-0.6,0-1.1-0.5-1.1-1.1v-36.5c0-0.6,0.5-1.1,1.1-1.1h1282.7
		c0.6,0,1.1,0.5,1.1,1.1V1002.3L1602.9,1002.3L1602.9,1002.3z M1602.9,1002.3"/>
	<path class="st2" d="M878.3,964.7c-0.2,1-0.3,1.9-0.3,2.9c0,9.5,7.4,17.2,16.6,17.2h137.1c9.2,0,16.6-7.7,16.6-17.2
		c0-1-0.1-2-0.3-2.9H878.3L878.3,964.7L878.3,964.7z M878.3,964.7"/>
	<path class="st3" d="M878.2,964.6c-0.2,1-0.3,2-0.3,3c0,9.6,7.4,17.4,16.6,17.4h137.4c9.2,0,16.6-7.8,16.6-17.4c0-1-0.1-2-0.3-3
		H878.2L878.2,964.6L878.2,964.6z M878.2,964.6"/>
	<path class="st2" d="M578.4,946.8c10.7,0,19.3-8.7,19.3-19.3c0-10.7-8.7-19.3-19.3-19.3s-19.3,8.7-19.3,19.3
		C559.1,938.1,567.8,946.8,578.4,946.8L578.4,946.8z M578.4,946.8"/>
	<path class="st3" d="M578.4,946.9c10.8,0,19.5-8.7,19.5-19.5c0-10.8-8.7-19.5-19.5-19.5s-19.5,8.7-19.5,19.5
		C559,938.2,567.7,946.9,578.4,946.9L578.4,946.9z M578.4,946.9"/>
	<path class="st2" d="M584.9,932.9c0,0.6-0.4,1.1-1,1.1h-11c-0.6,0-1-0.5-1-1.1V922c0-0.6,0.4-1.1,1-1.1h11c0.5,0,1,0.5,1,1.1V932.9
		L584.9,932.9L584.9,932.9z M584.9,932.9"/>
	<path class="st4" d="M584.9,932.9c0,0.6-0.4,1.1-1,1.1h-11c-0.6,0-1-0.5-1-1.1V922c0-0.6,0.4-1.1,1-1.1h11c0.5,0,1,0.5,1,1.1V932.9
		L584.9,932.9L584.9,932.9z M584.9,932.9"/>
	<path class="st2" d="M1474.1,950.5c10.7,0,19.3-8.7,19.3-19.3c0-10.7-8.7-19.3-19.3-19.3c-10.7,0-19.3,8.7-19.3,19.3
		C1454.8,941.8,1463.4,950.5,1474.1,950.5L1474.1,950.5z M1474.1,950.5"/>
	<path class="st3" d="M1474.1,950.6c10.8,0,19.5-8.7,19.5-19.5s-8.7-19.5-19.5-19.5s-19.5,8.7-19.5,19.5S1463.4,950.6,1474.1,950.6
		L1474.1,950.6z M1474.1,950.6"/>
	<path class="st2" d="M1480.6,936.6c0,0.6-0.4,1.1-1,1.1h-11c-0.6,0-1-0.5-1-1.1v-10.9c0-0.6,0.4-1.1,1-1.1h11c0.5,0,1,0.5,1,1.1
		V936.6L1480.6,936.6L1480.6,936.6z M1480.6,936.6"/>
	<path class="st4" d="M1480.6,936.6c0,0.6-0.4,1.1-1,1.1h-11c-0.6,0-1-0.5-1-1.1v-10.9c0-0.6,0.4-1.1,1-1.1h11c0.5,0,1,0.5,1,1.1
		V936.6L1480.6,936.6L1480.6,936.6z M1480.6,936.6"/>
</g>
<g id="Layer_1">
	<g>
		<path class="st5" d="M1171.9,638.3c-24.7,24.5-54.1,40.2-88.1,47.1c-38.5,7.8-75.4,2.8-110.7-14.4c-3.7-1.8-7.2-3.8-10.8-5.7
			c1-1.2,2.1-2.4,2.9-3.7c7.1-12.2,14.2-24.5,21.1-36.8c5-8.9,9.7-18,14.6-27c22.3,12.7,46,16.2,71,10.5c17.7-4,32.4-13.3,45.4-25.6
			c1.4,1.6,2.7,3.3,4.2,4.8C1138.3,604.4,1155.1,621.3,1171.9,638.3z"/>
		<path class="st6" d="M1171.9,638.3c-16.8-16.9-33.6-33.9-50.4-50.8c-1.5-1.5-2.8-3.2-4.2-4.8c17.7-18.6,27.2-40.6,27.7-66.3
			c0.3-17.5-4.4-33.7-13-48.9c2.2-1.2,4.4-2.3,6.5-3.5c20.4-11.7,40.7-23.3,61.1-35c9.3,15.1,15.6,31.5,19.1,48.8
			C1231.2,539.4,1215.2,592.8,1171.9,638.3z"/>
		<path class="st7" d="M899.4,428.8c6.8-13.7,16.7-25.1,27.3-35.8c27.2-27.4,60.2-43.6,98.2-49.4c8.2-1.2,16.6-0.9,24.9-1.3
			c0,25.8,0,51.7,0.1,77.5c-1.4,0.1-2.8,0.3-4.2,0.4c-18.2,0.8-34.8,6.2-49.8,16.5c-12.1,8.3-21.3,19.1-29,31.4
			c-0.5-0.5-0.9-1.1-1.5-1.5C943.4,454.1,921.4,441.5,899.4,428.8z"/>
		<path class="st8" d="M899.4,428.8c22,12.6,43.9,25.2,65.9,37.9c0.6,0.3,1,1,1.5,1.5c-14.2,26-16.5,52.9-6.4,80.8
			c1.8,5,4.2,9.7,6.4,14.6c-1.2,0.7-2.5,1.3-3.7,2c-21.2,12.1-42.4,24.3-63.6,36.4c-11.2-18.3-18-38.2-21.2-59.2
			c-6.2-39.6,0.6-77.1,20.1-112.2C898.6,430,899,429.4,899.4,428.8z"/>
		<path class="st9" d="M1049.9,419.9c0-25.8,0-51.7-0.1-77.5c24-1.1,46.7,4.5,68.4,13.9c35,15.2,62.5,39.2,81.4,72.6
			c-20.4,11.7-40.7,23.3-61.1,35c-2.1,1.2-4.3,2.4-6.5,3.5c-10.2-16.1-23.3-28.9-40.5-37.5C1078.4,423.3,1064.3,420.9,1049.9,419.9z
			"/>
		<path class="st10" d="M899.5,602c21.2-12.1,42.4-24.3,63.6-36.4c1.2-0.7,2.5-1.4,3.7-2c9,13.7,20,25.5,34.1,34.2
			c-4.9,9-9.6,18.1-14.6,27c-6.9,12.3-14,24.6-21.1,36.8c-0.8,1.4-1.9,2.5-2.9,3.7c-21.1-12.3-38.8-28.3-53.2-48
			C905.6,612.4,902.7,607.1,899.5,602z"/>
	</g>
	<path class="st11" d="M1491.7,312.6"/>
	<path class="st11" d="M477.4,311.8"/>
	<path class="st2" d="M319,1003.6c3.7,7.3,15.2,12.7,28.9,12.7H1573c13.7,0,25.2-5.4,28.9-12.7H319L319,1003.6L319,1003.6z
		 M319,1003.6"/>
	<path class="st2" d="M336.6,351.8c0-12.8,10.3-23.2,23-23.2h437.7c12.7,0,23,10.4,23,23.2v589.4c0,12.8-10.3,23.2-23,23.2H359.6
		c-12.7,0-23-10.4-23-23.2V351.8L336.6,351.8L336.6,351.8z M336.6,351.8"/>
	<path class="st2" d="M362.5,373.1v517.1h431.8V373.1H362.5L362.5,373.1z M362.5,373.1"/>
	<path class="st2" d="M578.2,355c2.5,0,4.5-2,4.5-4.5c0-2.5-2-4.5-4.5-4.5s-4.5,2-4.5,4.5C573.7,353,575.7,355,578.2,355L578.2,355z
		 M578.2,355"/>
	<path class="st3" d="M578.2,355c2.5,0,4.5-2,4.5-4.5c0-2.5-2-4.5-4.5-4.5s-4.5,2-4.5,4.5C573.7,353,575.7,355,578.2,355L578.2,355z
		 M578.2,355"/>
	<path class="st2" d="M1584.3,941c0,12.9-10.4,23.4-23.3,23.4h-172c-12.8,0-23.3-10.5-23.3-23.4V530c0-12.9,10.4-23.4,23.3-23.4h172
		c12.8,0,23.3,10.5,23.3,23.4V941L1584.3,941L1584.3,941z M1584.3,941"/>
	<path class="st2" d="M1455.7,551c0,2.5,1.9,4.5,4.2,4.5h28.5c2.3,0,4.2-2,4.2-4.5l0,0c0-2.5-1.9-4.5-4.2-4.5h-28.5
		C1457.6,546.5,1455.7,548.5,1455.7,551L1455.7,551L1455.7,551L1455.7,551z M1455.7,551"/>
	<path class="st3" d="M1455.6,551c0,2.6,1.9,4.6,4.2,4.6h28.7c2.3,0,4.2-2.1,4.2-4.6l0,0c0-2.6-1.9-4.6-4.2-4.6h-28.7
		C1457.4,546.4,1455.6,548.5,1455.6,551L1455.6,551L1455.6,551L1455.6,551z M1455.6,551"/>
	<path class="st2" d="M1472.9,533c2.5,0,4.5-2,4.5-4.5c0-2.5-2-4.5-4.5-4.5c-2.5,0-4.5,2-4.5,4.5C1468.5,531,1470.5,533,1472.9,533
		L1472.9,533z M1472.9,533"/>
	<path class="st3" d="M1472.9,533c2.5,0,4.5-2,4.5-4.5s-2-4.5-4.5-4.5c-2.5,0-4.5,2-4.5,4.5S1470.5,533,1472.9,533L1472.9,533z
		 M1472.9,533"/>
	<path class="st2" d="M1378.8,573.4v324.2h190.7V573.4H1378.8L1378.8,573.4z M1378.8,573.4"/>
	<g>
		<path class="st12" d="M654.5,853.2c0-80.7,0-160.8,0-241.5c9.6,0,19-0.1,28.4,0.1c1.1,0,2.7,1.7,3.2,3c0.6,1.3,0.2,3,0.2,4.6
			c0,75.7,0,151.3,0.1,227c0,5.2-1.5,7-6.6,6.8C671.5,853,663.3,853.2,654.5,853.2z"/>
		<path class="st13" d="M462.8,669.5c9.5,0,18.6-0.1,27.7,0.1c1.3,0,2.9,1.9,3.6,3.3c0.6,1.3,0.2,3,0.2,4.6c0,56.2,0,112.4,0,168.6
			c0,6.8-0.2,7.1-6.8,7.1c-7.6,0-15.1,0-22.7,0c-0.5,0-1-0.2-1.9-0.3C462.8,792,462.8,731.1,462.8,669.5z"/>
		<path class="st14" d="M750.2,852.3c-10.8,0-21.4,0-32.5,0c0-2.2,0-4,0-5.9c0-35.9,0-71.9,0-107.8c0-7.1,0-7.1,7.2-7.1
			c6.9,0,13.8,0,20.6,0c3.5,0,5.2,1.5,5.2,5.2c-0.1,38-0.1,76-0.1,114C750.6,851.1,750.4,851.4,750.2,852.3z"/>
		<path class="st15" d="M525.4,852.2c0-19.8,0-39.4,0-58.9c0-13.6,0.2-27.2-0.1-40.7c-0.1-4.7,1.7-6.5,6.3-6.5
			c7.2,0.1,14.4,0,21.7,0c3.3,0,5.2,1.3,5.2,4.9c0,33.2-0.1,66.3-0.1,99.5c0,0.3-0.2,0.6-0.5,1.7
			C547.2,852.2,536.5,852.2,525.4,852.2z"/>
		<path class="st16" d="M430.6,852.7c-11.3,0-21.9,0-32.8,0c-0.1-1.9-0.2-3.6-0.2-5.3c0-28.3,0.1-56.7-0.1-85c0-5,1.4-6.6,6.4-6.3
			c7.4,0.4,14.8,0.2,22.1,0.1c3.4,0,5.1,1.4,5.1,4.8c-0.2,20.4-0.4,40.8-0.5,61.3C430.5,832.2,430.6,842.2,430.6,852.7z"/>
		<path class="st17" d="M622.1,852.2c-10.8,0-20.9,0-31.6,0c-0.1-1.5-0.4-2.9-0.4-4.4c0-12.5,0.1-25.1-0.1-37.6
			c-0.1-4.2,1.4-5.9,5.7-5.7c7,0.3,14.1,0.1,21.1,0.1c3,0,5.2,1.2,5.2,4.3C622.2,823.1,622.1,837.4,622.1,852.2z"/>
	</g>
	<g>
		<path class="st12" d="M1515,891.5c0-38.2,0-76.2,0-114.4c4.5,0,9-0.1,13.4,0.1c0.5,0,1.3,0.8,1.5,1.4c0.3,0.6,0.1,1.4,0.1,2.2
			c0,35.8,0,71.7,0.1,107.5c0,2.5-0.7,3.3-3.1,3.2C1523.1,891.4,1519.2,891.5,1515,891.5z"/>
		<path class="st13" d="M1424.2,804.5c4.5,0,8.8-0.1,13.1,0.1c0.6,0,1.4,0.9,1.7,1.5c0.3,0.6,0.1,1.4,0.1,2.2c0,26.6,0,53.2,0,79.9
			c0,3.2-0.1,3.3-3.2,3.3c-3.6,0-7.2,0-10.7,0c-0.2,0-0.5-0.1-0.9-0.1C1424.2,862.5,1424.2,833.6,1424.2,804.5z"/>
		<path class="st14" d="M1560.4,891.1c-5.1,0-10.1,0-15.4,0c0-1,0-1.9,0-2.8c0-17,0-34,0-51c0-3.4,0-3.4,3.4-3.4c3.3,0,6.5,0,9.8,0
			c1.7,0,2.5,0.7,2.5,2.5c0,18,0,36-0.1,54C1560.6,890.5,1560.5,890.6,1560.4,891.1z"/>
		<path class="st15" d="M1453.9,891c0-9.4,0-18.6,0-27.9c0-6.4,0.1-12.9,0-19.3c0-2.2,0.8-3.1,3-3.1c3.4,0.1,6.8,0,10.3,0
			c1.6,0,2.5,0.6,2.5,2.3c0,15.7,0,31.4-0.1,47.1c0,0.2-0.1,0.3-0.2,0.8C1464.3,891,1459.1,891,1453.9,891z"/>
		<path class="st16" d="M1409,891.2c-5.4,0-10.4,0-15.5,0c0-0.9-0.1-1.7-0.1-2.5c0-13.4,0-26.8-0.1-40.3c0-2.4,0.7-3.1,3-3
			c3.5,0.2,7,0.1,10.5,0c1.6,0,2.4,0.6,2.4,2.3c-0.1,9.7-0.2,19.3-0.2,29C1409,881.5,1409,886.2,1409,891.2z"/>
		<path class="st17" d="M1499.7,891c-5.1,0-9.9,0-15,0c-0.1-0.7-0.2-1.4-0.2-2.1c0-5.9,0.1-11.9,0-17.8c0-2,0.6-2.8,2.7-2.7
			c3.3,0.1,6.7,0.1,10,0c1.4,0,2.5,0.6,2.5,2.1C1499.8,877.2,1499.7,884,1499.7,891z"/>
	</g>
	<g>
		<path class="st5" d="M656.5,607.3c-15.9,15.9-35,26-57,30.5c-24.9,5-48.8,1.8-71.6-9.3c-2.4-1.2-4.7-2.5-7-3.7
			c0.6-0.8,1.4-1.5,1.9-2.4c4.6-7.9,9.2-15.8,13.7-23.8c3.2-5.8,6.3-11.6,9.4-17.5c14.4,8.2,29.7,10.5,45.9,6.8
			c11.4-2.6,21-8.6,29.4-16.6c0.9,1,1.7,2.1,2.7,3.1C634.8,585.4,645.7,596.4,656.5,607.3z"/>
		<path class="st6" d="M656.5,607.3c-10.9-11-21.7-21.9-32.6-32.9c-1-1-1.8-2.1-2.7-3.1c11.4-12,17.6-26.2,17.9-42.9
			c0.2-11.3-2.9-21.8-8.4-31.6c1.4-0.8,2.8-1.5,4.2-2.3c13.2-7.5,26.3-15.1,39.5-22.6c6,9.8,10.1,20.4,12.3,31.6
			C694.9,543.4,684.5,577.9,656.5,607.3z"/>
		<path class="st7" d="M480.3,471.9c4.4-8.9,10.8-16.2,17.6-23.1c17.6-17.7,38.9-28.2,63.5-32c5.3-0.8,10.7-0.6,16.1-0.8
			c0,16.7,0,33.4,0,50.1c-0.9,0.1-1.8,0.2-2.7,0.2c-11.8,0.5-22.5,4-32.2,10.7c-7.8,5.4-13.8,12.4-18.8,20.3c-0.3-0.3-0.6-0.7-1-1
			C508.7,488.2,494.5,480.1,480.3,471.9z"/>
		<path class="st8" d="M480.3,471.9c14.2,8.2,28.4,16.3,42.6,24.5c0.4,0.2,0.6,0.6,1,1c-9.2,16.8-10.7,34.2-4.1,52.2
			c1.2,3.2,2.7,6.3,4.1,9.4c-0.8,0.4-1.6,0.9-2.4,1.3c-13.7,7.8-27.4,15.7-41.1,23.5c-7.2-11.8-11.6-24.7-13.7-38.3
			c-4-25.6,0.4-49.8,13-72.6C479.8,472.7,480.1,472.3,480.3,471.9z"/>
		<path class="st9" d="M577.6,466.1c0-16.7,0-33.4,0-50.1c15.5-0.7,30.2,2.9,44.2,9c22.7,9.9,40.4,25.3,52.6,47
			c-13.2,7.5-26.3,15.1-39.5,22.6c-1.4,0.8-2.8,1.5-4.2,2.3c-6.6-10.4-15.1-18.7-26.2-24.3C596,468.3,587,466.8,577.6,466.1z"/>
		<path class="st10" d="M480.4,583.9c13.7-7.8,27.4-15.7,41.1-23.5c0.8-0.5,1.6-0.9,2.4-1.3c5.8,8.9,13,16.5,22.1,22.1
			c-3.1,5.8-6.2,11.7-9.4,17.5c-4.5,8-9.1,15.9-13.7,23.8c-0.5,0.9-1.3,1.6-1.9,2.4c-13.6-7.9-25.1-18.3-34.4-31
			C484.3,590.6,482.4,587.2,480.4,583.9z"/>
	</g>
	<g>
		<path class="st5" d="M1527.4,728.1c-11,10.9-24,17.9-39.2,20.9c-17.1,3.5-33.5,1.2-49.2-6.4c-1.6-0.8-3.2-1.7-4.8-2.5
			c0.4-0.5,1-1.1,1.3-1.7c3.1-5.4,6.3-10.9,9.4-16.4c2.2-4,4.3-8,6.5-12c9.9,5.6,20.4,7.2,31.6,4.7c7.9-1.8,14.4-5.9,20.2-11.4
			c0.6,0.7,1.2,1.5,1.8,2.1C1512.5,713.1,1519.9,720.6,1527.4,728.1z"/>
		<path class="st6" d="M1527.4,728.1c-7.5-7.5-14.9-15-22.4-22.6c-0.7-0.7-1.2-1.4-1.8-2.1c7.9-8.2,12.1-18,12.3-29.4
			c0.1-7.8-2-15-5.8-21.7c1-0.5,1.9-1,2.9-1.6c9-5.2,18.1-10.4,27.1-15.6c4.1,6.7,6.9,14,8.5,21.7
			C1553.7,684.2,1546.6,708,1527.4,728.1z"/>
		<path class="st7" d="M1406.3,635.1c3-6.1,7.4-11.1,12.1-15.9c12.1-12.2,26.7-19.4,43.6-22c3.6-0.6,7.4-0.4,11.1-0.6
			c0,11.5,0,23,0,34.4c-0.6,0.1-1.3,0.1-1.9,0.2c-8.1,0.4-15.4,2.8-22.1,7.4c-5.4,3.7-9.5,8.5-12.9,13.9c-0.2-0.2-0.4-0.5-0.7-0.7
			C1425.9,646.3,1416.1,640.7,1406.3,635.1z"/>
		<path class="st8" d="M1406.3,635.1c9.8,5.6,19.5,11.2,29.3,16.8c0.3,0.2,0.4,0.4,0.7,0.7c-6.3,11.5-7.3,23.5-2.8,35.9
			c0.8,2.2,1.9,4.3,2.8,6.5c-0.6,0.3-1.1,0.6-1.7,0.9c-9.4,5.4-18.8,10.8-28.3,16.2c-5-8.1-8-17-9.4-26.3
			c-2.8-17.6,0.3-34.2,8.9-49.8C1406,635.6,1406.2,635.4,1406.3,635.1z"/>
		<path class="st9" d="M1473.2,631.2c0-11.5,0-23,0-34.4c10.6-0.5,20.7,2,30.4,6.2c15.6,6.8,27.8,17.4,36.1,32.3
			c-9,5.2-18.1,10.4-27.1,15.6c-1,0.5-1.9,1-2.9,1.6c-4.5-7.1-10.4-12.8-18-16.7C1485.8,632.7,1479.6,631.6,1473.2,631.2z"/>
		<path class="st10" d="M1406.4,712c9.4-5.4,18.8-10.8,28.3-16.2c0.5-0.3,1.1-0.6,1.7-0.9c4,6.1,8.9,11.3,15.2,15.2
			c-2.2,4-4.3,8-6.5,12c-3.1,5.5-6.2,10.9-9.4,16.4c-0.3,0.6-0.9,1.1-1.3,1.7c-9.4-5.5-17.3-12.6-23.6-21.3
			C1409.1,716.7,1407.8,714.3,1406.4,712z"/>
	</g>
	<g>
		<defs>
			<rect id="SVGID_1_" x="820" y="585.4" width="523.8" height="337.8"/>
		</defs>
		<clipPath id="SVGID_2_">
			<use xlink:href="#SVGID_1_"  style="overflow:visible;"/>
		</clipPath>
		<g class="st18">
			<path class="st12" d="M1179.2,980.7c0-110.2,0-219.6,0-329.7c13.1,0,25.9-0.1,38.7,0.2c1.6,0,3.7,2.4,4.4,4.1
				c0.8,1.8,0.3,4.2,0.3,6.3c0,103.3-0.1,206.7,0.2,310c0,7.1-2.1,9.5-9.1,9.3C1202.5,980.4,1191.2,980.7,1179.2,980.7z"/>
			<path class="st13" d="M917.4,729.9c13,0,25.4-0.2,37.8,0.2c1.7,0.1,3.9,2.6,4.9,4.5c0.8,1.7,0.3,4.1,0.3,6.2
				c0,76.8,0,153.5,0,230.3c0,9.3-0.3,9.6-9.3,9.7c-10.3,0-20.7,0-31,0c-0.7,0-1.4-0.2-2.6-0.4C917.4,897.2,917.4,814,917.4,729.9z"
				/>
			<path class="st14" d="M1309.9,979.5c-14.7,0-29.2,0-44.4,0c0-2.9,0-5.5,0-8c0-49.1,0-98.1,0-147.2c0-9.7,0-9.7,9.8-9.7
				c9.4,0,18.8,0,28.2,0c4.8,0,7.1,2.1,7.1,7.1c-0.1,51.9-0.1,103.7-0.2,155.6C1310.5,977.8,1310.2,978.3,1309.9,979.5z"/>
			<path class="st15" d="M1002.9,979.4c0-27,0-53.7,0-80.5c0-18.5,0.2-37.1-0.1-55.6c-0.1-6.5,2.3-8.9,8.6-8.8
				c9.9,0.2,19.7,0.1,29.6,0c4.5,0,7.1,1.8,7.1,6.7c-0.1,45.3-0.1,90.6-0.1,135.9c0,0.4-0.3,0.9-0.7,2.3
				C1032.8,979.4,1018.1,979.4,1002.9,979.4z"/>
			<path class="st16" d="M873.5,980c-15.5,0-29.9,0-44.8,0c-0.1-2.6-0.3-4.9-0.3-7.2c0-38.7,0.1-77.4-0.2-116
				c-0.1-6.8,1.9-9,8.7-8.7c10.1,0.5,20.2,0.2,30.2,0.1c4.7-0.1,7,1.9,7,6.6c-0.3,27.9-0.5,55.8-0.7,83.6
				C873.4,952.1,873.5,965.6,873.5,980z"/>
			<path class="st17" d="M1135.1,979.4c-14.8,0-28.6,0-43.1,0c-0.2-2-0.5-4-0.5-6c0-17.1,0.2-34.3-0.1-51.4c-0.1-5.8,1.8-8,7.7-7.8
				c9.6,0.4,19.2,0.2,28.9,0.1c4.2,0,7.1,1.6,7.1,5.9C1135.1,939.6,1135.1,959.1,1135.1,979.4z"/>
		</g>
	</g>
</g>
</svg>
