<?xml version="1.0" encoding="utf-8"?>
<!-- Generator: Adobe Illustrator 22.1.0, SVG Export Plug-In . SVG Version: 6.00 Build 0)  -->
<svg version="1.1" id="Layer_1" xmlns="http://www.w3.org/2000/svg" xmlns:xlink="http://www.w3.org/1999/xlink" x="0px" y="0px"
	 viewBox="0 0 432 102" style="enable-background:new 0 0 432 102;" xml:space="preserve">
<style type="text/css">
	.st0{fill:url(#SVGID_1_);}
	.st1{fill:url(#SVGID_2_);}
	.st2{fill:url(#SVGID_3_);}
	.st3{fill:url(#SVGID_4_);}
	.st4{fill:url(#SVGID_5_);}
	.st5{fill:url(#SVGID_6_);}
	.st6{fill:url(#SVGID_7_);}
	.st7{fill:url(#SVGID_8_);}
	.st8{fill:url(#SVGID_9_);}
	.st9{fill:#FFFFFF;}
</style>
<g>
	<radialGradient id="SVGID_1_" cx="210.2251" cy="55.1958" r="196.1156" gradientUnits="userSpaceOnUse">
		<stop  offset="0" style="stop-color:#FCB045"/>
		<stop  offset="0.5196" style="stop-color:#FD1D1D"/>
		<stop  offset="1" style="stop-color:#833AB4"/>
	</radialGradient>
	<path class="st0" d="M39.9,29c0,0-10.7-1.7-17.9-1.7c-6.7,0-14.1,2-14.1,10.5c0,6.5,2.8,8.5,14.9,10.4C36.6,50.4,42,52.4,42,62.3
		c0,12.3-7.6,16.1-20,16.1c-6,0-17.4-1.7-17.4-1.7l0.4-3.5c0,0,11.4,1.8,16.7,1.8c9.9,0,16.3-2.3,16.3-12.4c0-7.6-3.8-9.1-16.3-10.9
		C9.5,49.8,4,47.8,4,38c0-11.2,9.5-14.1,18-14.1c8.1,0,18.1,1.6,18.1,1.6L39.9,29z"/>
	<radialGradient id="SVGID_2_" cx="210.2251" cy="55.1958" r="196.1156" gradientUnits="userSpaceOnUse">
		<stop  offset="0" style="stop-color:#FCB045"/>
		<stop  offset="0.5196" style="stop-color:#FD1D1D"/>
		<stop  offset="1" style="stop-color:#833AB4"/>
	</radialGradient>
	<path class="st1" d="M93.1,24.9v52.6h-3.7v-4.2c0,0-8.2,5.2-17.3,5.2c-14.3,0-17.3-5.8-17.3-26.2V24.9h3.7V52
		c0,17.9,1.9,23,13.6,23c9.4,0,17.3-5.3,17.3-5.3V24.9H93.1z"/>
	<radialGradient id="SVGID_3_" cx="210.2251" cy="55.1958" r="196.1156" gradientUnits="userSpaceOnUse">
		<stop  offset="0" style="stop-color:#FCB045"/>
		<stop  offset="0.5196" style="stop-color:#FD1D1D"/>
		<stop  offset="1" style="stop-color:#833AB4"/>
	</radialGradient>
	<path class="st2" d="M109.8,24.9h3.7v8.2c0,0,9.3-7.1,20.8-9.3v3.8c-10.3,2.1-20.8,8.9-20.8,8.9v40.9h-3.7V24.9z"/>
	<radialGradient id="SVGID_4_" cx="210.2251" cy="55.1958" r="196.1156" gradientUnits="userSpaceOnUse">
		<stop  offset="0" style="stop-color:#FCB045"/>
		<stop  offset="0.5196" style="stop-color:#FD1D1D"/>
		<stop  offset="1" style="stop-color:#833AB4"/>
	</radialGradient>
	<path class="st3" d="M143.5,24.9l14.8,49.2h4.6l15.3-49.2h3.9l-16.3,52.6h-10.3l-16.3-52.6H143.5z"/>
	<radialGradient id="SVGID_5_" cx="210.2251" cy="55.1958" r="196.1156" gradientUnits="userSpaceOnUse">
		<stop  offset="0" style="stop-color:#FCB045"/>
		<stop  offset="0.5196" style="stop-color:#FD1D1D"/>
		<stop  offset="1" style="stop-color:#833AB4"/>
	</radialGradient>
	<path class="st4" d="M229.5,74.1l0.2,3.4c0,0-11.8,0.9-19.5,0.9c-15.7-0.1-19.8-10.1-19.8-27.3c0-20.8,9.3-27.3,21.3-27.3
		c12.9,0,20,7.1,20,25.3v3.5h-37.4c0,14.5,3.8,22.4,16,22.4C217.7,75,229.5,74.1,229.5,74.1z M227.8,49.3c0-16.1-5.2-22-16.1-22
		c-10.5,0-17.4,6-17.4,22H227.8z"/>
	<radialGradient id="SVGID_6_" cx="210.2251" cy="55.1958" r="196.1156" gradientUnits="userSpaceOnUse">
		<stop  offset="0" style="stop-color:#FCB045"/>
		<stop  offset="0.5196" style="stop-color:#FD1D1D"/>
		<stop  offset="1" style="stop-color:#833AB4"/>
	</radialGradient>
	<path class="st5" d="M243.4,24.9l15.5,49.2h4.3l15.6-49.2h3.9l-24.1,76.8h-3.9l7.6-24.2h-6.4l-16.3-52.6H243.4z"/>
	<radialGradient id="SVGID_7_" cx="210.2251" cy="55.1958" r="196.1156" gradientUnits="userSpaceOnUse">
		<stop  offset="0" style="stop-color:#FCB045"/>
		<stop  offset="0.5196" style="stop-color:#FD1D1D"/>
		<stop  offset="1" style="stop-color:#833AB4"/>
	</radialGradient>
	<path class="st6" d="M333.7,50.3c0,19.7-4.4,28.1-24,28.1c-7.2,0-15.7-0.9-15.7-0.9V0.6h3.7v27.5c0,0,8.7-4.2,18.1-4.2
		C330.1,23.9,333.7,32.2,333.7,50.3z M329.8,50.3c0-15.6-2.3-23-14-23c-9.4,0-18.1,4.2-18.1,4.2v42.9c0,0,8.2,0.6,11.9,0.6
		C327.2,75,329.8,67.3,329.8,50.3z"/>
	<radialGradient id="SVGID_8_" cx="210.2251" cy="55.1958" r="196.1156" gradientUnits="userSpaceOnUse">
		<stop  offset="0" style="stop-color:#FCB045"/>
		<stop  offset="0.5196" style="stop-color:#FD1D1D"/>
		<stop  offset="1" style="stop-color:#833AB4"/>
	</radialGradient>
	<path class="st7" d="M387.1,35.4c-1.2-5.5-4.3-9.5-9-12.6c1.3-2.7,2.6-5.4,4-8c0.4-0.6,1.2-1.2,1.9-1.4c2.1-0.5,3.6-1.9,3.9-3.8
		c0.3-1.8-0.8-3.7-2.4-4.5c-1.8-0.9-3.7-0.5-5.1,1c-1.4,1.5-1.5,3.3-0.4,5.4c0.2,0.4,0.4,1.1,0.2,1.5c-1.4,2.9-2.8,5.8-4.3,8.8
		c-5.5-2.3-10.8-2.2-16.2,0c-1.4-2.7-2.6-5.4-4-8c-0.5-0.9-0.6-1.6,0-2.6c0.5-0.7,0.6-1.9,0.5-2.7c-0.3-2.3-2.4-3.9-4.5-3.7
		c-2.1,0.1-3.9,1.9-4.1,4c-0.2,2.1,1.3,4.1,3.5,4.7c0.7,0.2,1.7,0.3,1.9,0.8c1.5,2.8,2.9,5.8,4.3,8.6c-6.2,5.5-8.5,9.5-9.5,13.4
		c0,0,0,0,0,0c-1.1,3.7-1.6,8.4-1.6,14.1c0,21.2,4,28.2,21.4,28.2c17.4,0,21.4-7.1,21.4-28.2C389,44.1,388.4,39.2,387.1,35.4z
		 M377,28.8c0,1.4-1.3,2.7-2.7,2.8c-1.5,0-2.9-1.3-2.9-2.8c0-0.5,0.2-0.9,0.4-1.3C373.8,27.7,375.5,28.1,377,28.8
		C376.9,28.8,377,28.8,377,28.8z M364.1,29c0,1.4-1.3,2.7-2.8,2.7c-1.5,0-2.8-1.4-2.7-2.9c0-0.1,0-0.1,0-0.2c1.4-0.6,3.1-0.9,5-1.1
		C364,27.9,364.2,28.4,364.1,29z M367.6,75c-15.6,0-17.5-6.7-17.5-24.8c0-6.1,0.5-10.7,1.6-14.1c10.4,0,21.2,0.1,31.7,0.1
		c1.1,3.4,1.6,8,1.6,14C385.1,68.3,383.2,75,367.6,75z"/>
	<radialGradient id="SVGID_9_" cx="210.2251" cy="55.1958" r="196.1156" gradientUnits="userSpaceOnUse">
		<stop  offset="0" style="stop-color:#FCB045"/>
		<stop  offset="0.5196" style="stop-color:#FD1D1D"/>
		<stop  offset="1" style="stop-color:#833AB4"/>
	</radialGradient>
	<path class="st8" d="M409.7,28.2v27.6c0,15.7,1.2,19.4,9.7,19.4c2.9,0,10.3-0.8,10.3-0.8l0.3,3.4c0,0-6.9,0.8-10.6,0.8
		c-9.6,0-13.4-3.6-13.4-18.7V28.2h-8.3v-3.4h8.3V7.7h3.7v17.2h19.2v3.4H409.7z"/>
</g>
<path class="st9" d="M364.4,28.2c0-1.4-1.2-2.7-2.6-2.8c-1.6,0-2.8,1-2.9,2.5c-0.1,1.5,1.2,2.9,2.7,2.9
	C363.1,30.9,364.3,29.6,364.4,28.2z"/>
<path class="st9" d="M377.2,28.2c0-1.4-1.2-2.7-2.6-2.8c-1.6,0-2.8,1-2.9,2.5c-0.1,1.5,1.2,2.9,2.7,2.9
	C375.9,30.9,377.2,29.6,377.2,28.2z"/>
</svg>
